<?xml version="1.0" encoding="UTF-8" standalone="no"?>
<!DOCTYPE svg PUBLIC "-//W3C//DTD SVG 1.1//EN"
 "http://www.w3.org/Graphics/SVG/1.1/DTD/svg11.dtd">
<!-- Generated by graphviz version 8.0.5 (20230430.1635)
 -->
<!-- Title: snakemake_dag Pages: 1 -->
<svg width="324pt" height="1052pt"
 viewBox="0.00 0.00 324.12 1052.00" xmlns="http://www.w3.org/2000/svg" xmlns:xlink="http://www.w3.org/1999/xlink">
<g id="graph0" class="graph" transform="scale(1 1) rotate(0) translate(4 1048)">
<title>snakemake_dag</title>
<polygon fill="white" stroke="none" points="-4,4 -4,-1048 320.12,-1048 320.12,4 -4,4"/>
<!-- 0 -->
<g id="node1" class="node">
<title>0</title>
<path fill="none" stroke="#d8ac56" stroke-width="2" d="M200.25,-36C200.25,-36 170.25,-36 170.25,-36 164.25,-36 158.25,-30 158.25,-24 158.25,-24 158.25,-12 158.25,-12 158.25,-6 164.25,0 170.25,0 170.25,0 200.25,0 200.25,0 206.25,0 212.25,-6 212.25,-12 212.25,-12 212.25,-24 212.25,-24 212.25,-30 206.25,-36 200.25,-36"/>
<text text-anchor="middle" x="185.25" y="-14.12" font-family="sans" font-size="10.00">all</text>
</g>
<!-- 1 -->
<g id="node2" class="node">
<title>1</title>
<path fill="none" stroke="#56d8b9" stroke-width="2" d="M98.5,-108C98.5,-108 12,-108 12,-108 6,-108 0,-102 0,-96 0,-96 0,-84 0,-84 0,-78 6,-72 12,-72 12,-72 98.5,-72 98.5,-72 104.5,-72 110.5,-78 110.5,-84 110.5,-84 110.5,-96 110.5,-96 110.5,-102 104.5,-108 98.5,-108"/>
<text text-anchor="middle" x="55.25" y="-86.12" font-family="sans" font-size="10.00">join_games_stadiums</text>
</g>
<!-- 1&#45;&gt;0 -->
<g id="edge1" class="edge">
<title>1&#45;&gt;0</title>
<path fill="none" stroke="grey" stroke-width="2" d="M88.39,-71.15C106,-61.67 127.75,-49.96 146.18,-40.04"/>
<polygon fill="grey" stroke="grey" stroke-width="2" points="148.3,-42.8 155.44,-34.97 144.98,-36.63 148.3,-42.8"/>
</g>
<!-- 2 -->
<g id="node3" class="node">
<title>2</title>
<path fill="none" stroke="#56d863" stroke-width="2" d="M93.12,-684C93.12,-684 37.38,-684 37.38,-684 31.38,-684 25.38,-678 25.38,-672 25.38,-672 25.38,-660 25.38,-660 25.38,-654 31.38,-648 37.38,-648 37.38,-648 93.12,-648 93.12,-648 99.12,-648 105.12,-654 105.12,-660 105.12,-660 105.12,-672 105.12,-672 105.12,-678 99.12,-684 93.12,-684"/>
<text text-anchor="middle" x="65.25" y="-662.12" font-family="sans" font-size="10.00">concat_games</text>
</g>
<!-- 2&#45;&gt;1 -->
<g id="edge4" class="edge">
<title>2&#45;&gt;1</title>
<path fill="none" stroke="grey" stroke-width="2" d="M57.19,-647.03C46.04,-620.48 27.25,-568.94 27.25,-523 27.25,-523 27.25,-523 27.25,-233 27.25,-193.74 37.68,-149.5 45.81,-120.99"/>
<polygon fill="grey" stroke="grey" stroke-width="2" points="49.96,-121.29 49.45,-110.71 43.25,-119.31 49.96,-121.29"/>
</g>
<!-- 8 -->
<g id="node9" class="node">
<title>8</title>
<path fill="none" stroke="#d88d56" stroke-width="2" d="M155.25,-468C155.25,-468 67.25,-468 67.25,-468 61.25,-468 55.25,-462 55.25,-456 55.25,-456 55.25,-444 55.25,-444 55.25,-438 61.25,-432 67.25,-432 67.25,-432 155.25,-432 155.25,-432 161.25,-432 167.25,-438 167.25,-444 167.25,-444 167.25,-456 167.25,-456 167.25,-462 161.25,-468 155.25,-468"/>
<text text-anchor="middle" x="111.25" y="-446.12" font-family="sans" font-size="10.00">concat_match_sheets</text>
</g>
<!-- 2&#45;&gt;8 -->
<g id="edge13" class="edge">
<title>2&#45;&gt;8</title>
<path fill="none" stroke="grey" stroke-width="2" d="M65.54,-647.22C66.46,-617.12 70.2,-554.47 85.25,-504 87.64,-495.98 91.16,-487.67 94.83,-480.09"/>
<polygon fill="grey" stroke="grey" stroke-width="2" points="98.32,-481.04 99.8,-470.55 92.1,-477.82 98.32,-481.04"/>
</g>
<!-- 10 -->
<g id="node11" class="node">
<title>10</title>
<path fill="none" stroke="#568ad8" stroke-width="2" d="M193.25,-612C193.25,-612 105.25,-612 105.25,-612 99.25,-612 93.25,-606 93.25,-600 93.25,-600 93.25,-588 93.25,-588 93.25,-582 99.25,-576 105.25,-576 105.25,-576 193.25,-576 193.25,-576 199.25,-576 205.25,-582 205.25,-588 205.25,-588 205.25,-600 205.25,-600 205.25,-606 199.25,-612 193.25,-612"/>
<text text-anchor="middle" x="149.25" y="-590.12" font-family="sans" font-size="10.00">scrape_match_sheets</text>
</g>
<!-- 2&#45;&gt;10 -->
<g id="edge16" class="edge">
<title>2&#45;&gt;10</title>
<path fill="none" stroke="grey" stroke-width="2" d="M86.45,-647.34C96.02,-639.36 107.53,-629.77 118.06,-620.99"/>
<polygon fill="grey" stroke="grey" stroke-width="2" points="120.33,-622.99 125.77,-613.9 115.84,-617.61 120.33,-622.99"/>
</g>
<!-- 3 -->
<g id="node4" class="node">
<title>3</title>
<path fill="none" stroke="#80d856" stroke-width="2" d="M94,-900C94,-900 40.5,-900 40.5,-900 34.5,-900 28.5,-894 28.5,-888 28.5,-888 28.5,-876 28.5,-876 28.5,-870 34.5,-864 40.5,-864 40.5,-864 94,-864 94,-864 100,-864 106,-870 106,-876 106,-876 106,-888 106,-888 106,-894 100,-900 94,-900"/>
<text text-anchor="middle" x="67.25" y="-878.12" font-family="sans" font-size="10.00">concat_teams</text>
</g>
<!-- 3&#45;&gt;2 -->
<g id="edge7" class="edge">
<title>3&#45;&gt;2</title>
<path fill="none" stroke="grey" stroke-width="2" d="M60.86,-863.11C57.57,-852.96 53.91,-839.93 52.25,-828 50.29,-813.91 50.89,-739.83 53.25,-720 54.13,-712.62 55.6,-704.77 57.22,-697.43"/>
<polygon fill="grey" stroke="grey" stroke-width="2" points="61.27,-697.53 60.19,-686.99 54.46,-695.9 61.27,-697.53"/>
</g>
<!-- 7 -->
<g id="node8" class="node">
<title>7</title>
<path fill="none" stroke="#d8c356" stroke-width="2" d="M129.12,-828C129.12,-828 73.38,-828 73.38,-828 67.38,-828 61.38,-822 61.38,-816 61.38,-816 61.38,-804 61.38,-804 61.38,-798 67.38,-792 73.38,-792 73.38,-792 129.12,-792 129.12,-792 135.12,-792 141.12,-798 141.12,-804 141.12,-804 141.12,-816 141.12,-816 141.12,-822 135.12,-828 129.12,-828"/>
<text text-anchor="middle" x="101.25" y="-806.12" font-family="sans" font-size="10.00">scrape_games</text>
</g>
<!-- 3&#45;&gt;7 -->
<g id="edge12" class="edge">
<title>3&#45;&gt;7</title>
<path fill="none" stroke="grey" stroke-width="2" d="M75.83,-863.34C79.19,-856.43 83.13,-848.31 86.89,-840.56"/>
<polygon fill="grey" stroke="grey" stroke-width="2" points="90.33,-841.43 91.55,-830.9 84.04,-838.37 90.33,-841.43"/>
</g>
<!-- 4 -->
<g id="node5" class="node">
<title>4</title>
<path fill="none" stroke="#56d882" stroke-width="2" d="M91.38,-972C91.38,-972 43.12,-972 43.12,-972 37.12,-972 31.12,-966 31.12,-960 31.12,-960 31.12,-948 31.12,-948 31.12,-942 37.12,-936 43.12,-936 43.12,-936 91.38,-936 91.38,-936 97.38,-936 103.38,-942 103.38,-948 103.38,-948 103.38,-960 103.38,-960 103.38,-966 97.38,-972 91.38,-972"/>
<text text-anchor="middle" x="67.25" y="-950.12" font-family="sans" font-size="10.00">parse_teams</text>
</g>
<!-- 4&#45;&gt;3 -->
<g id="edge9" class="edge">
<title>4&#45;&gt;3</title>
<path fill="none" stroke="grey" stroke-width="2" d="M67.25,-935.34C67.25,-928.75 67.25,-921.08 67.25,-913.67"/>
<polygon fill="grey" stroke="grey" stroke-width="2" points="70.75,-913.9 67.25,-903.9 63.75,-913.9 70.75,-913.9"/>
</g>
<!-- 5 -->
<g id="node6" class="node">
<title>5</title>
<path fill="none" stroke="#56a9d8" stroke-width="2" d="M94,-1044C94,-1044 40.5,-1044 40.5,-1044 34.5,-1044 28.5,-1038 28.5,-1032 28.5,-1032 28.5,-1020 28.5,-1020 28.5,-1014 34.5,-1008 40.5,-1008 40.5,-1008 94,-1008 94,-1008 100,-1008 106,-1014 106,-1020 106,-1020 106,-1032 106,-1032 106,-1038 100,-1044 94,-1044"/>
<text text-anchor="middle" x="67.25" y="-1022.12" font-family="sans" font-size="10.00">scrape_teams</text>
</g>
<!-- 5&#45;&gt;4 -->
<g id="edge10" class="edge">
<title>5&#45;&gt;4</title>
<path fill="none" stroke="grey" stroke-width="2" d="M67.25,-1007.34C67.25,-1000.75 67.25,-993.08 67.25,-985.67"/>
<polygon fill="grey" stroke="grey" stroke-width="2" points="70.75,-985.9 67.25,-975.9 63.75,-985.9 70.75,-985.9"/>
</g>
<!-- 6 -->
<g id="node7" class="node">
<title>6</title>
<path fill="none" stroke="#97d856" stroke-width="2" d="M124.5,-756C124.5,-756 74,-756 74,-756 68,-756 62,-750 62,-744 62,-744 62,-732 62,-732 62,-726 68,-720 74,-720 74,-720 124.5,-720 124.5,-720 130.5,-720 136.5,-726 136.5,-732 136.5,-732 136.5,-744 136.5,-744 136.5,-750 130.5,-756 124.5,-756"/>
<text text-anchor="middle" x="99.25" y="-734.12" font-family="sans" font-size="10.00">parse_games</text>
</g>
<!-- 6&#45;&gt;2 -->
<g id="edge8" class="edge">
<title>6&#45;&gt;2</title>
<path fill="none" stroke="grey" stroke-width="2" d="M90.67,-719.34C87.31,-712.43 83.37,-704.31 79.61,-696.56"/>
<polygon fill="grey" stroke="grey" stroke-width="2" points="82.46,-694.37 74.95,-686.9 76.17,-697.43 82.46,-694.37"/>
</g>
<!-- 7&#45;&gt;6 -->
<g id="edge11" class="edge">
<title>7&#45;&gt;6</title>
<path fill="none" stroke="grey" stroke-width="2" d="M100.75,-791.34C100.56,-784.75 100.34,-777.08 100.13,-769.67"/>
<polygon fill="grey" stroke="grey" stroke-width="2" points="103.55,-769.8 99.76,-759.9 96.55,-770 103.55,-769.8"/>
</g>
<!-- 8&#45;&gt;1 -->
<g id="edge5" class="edge">
<title>8&#45;&gt;1</title>
<path fill="none" stroke="grey" stroke-width="2" d="M101.92,-431.17C89,-404.79 67.25,-353.46 67.25,-307 67.25,-307 67.25,-307 67.25,-233 67.25,-194.52 62.82,-150.37 59.34,-121.66"/>
<polygon fill="grey" stroke="grey" stroke-width="2" points="62.46,-121.38 57.74,-111.89 55.51,-122.25 62.46,-121.38"/>
</g>
<!-- 12 -->
<g id="node13" class="node">
<title>12</title>
<path fill="none" stroke="#5673d8" stroke-width="2" d="M206.38,-252C206.38,-252 140.12,-252 140.12,-252 134.12,-252 128.12,-246 128.12,-240 128.12,-240 128.12,-228 128.12,-228 128.12,-222 134.12,-216 140.12,-216 140.12,-216 206.38,-216 206.38,-216 212.38,-216 218.38,-222 218.38,-228 218.38,-228 218.38,-240 218.38,-240 218.38,-246 212.38,-252 206.38,-252"/>
<text text-anchor="middle" x="173.25" y="-230.12" font-family="sans" font-size="10.00">concat_stadiums</text>
</g>
<!-- 8&#45;&gt;12 -->
<g id="edge19" class="edge">
<title>8&#45;&gt;12</title>
<path fill="none" stroke="grey" stroke-width="2" d="M110.01,-431.26C108.55,-400.68 108.56,-336.66 129.25,-288 133.11,-278.92 139.05,-270.19 145.33,-262.52"/>
<polygon fill="grey" stroke="grey" stroke-width="2" points="147.94,-264.61 151.95,-254.8 142.7,-259.97 147.94,-264.61"/>
</g>
<!-- 14 -->
<g id="node15" class="node">
<title>14</title>
<path fill="none" stroke="#b6d856" stroke-width="2" d="M215.38,-396C215.38,-396 149.12,-396 149.12,-396 143.12,-396 137.12,-390 137.12,-384 137.12,-384 137.12,-372 137.12,-372 137.12,-366 143.12,-360 149.12,-360 149.12,-360 215.38,-360 215.38,-360 221.38,-360 227.38,-366 227.38,-372 227.38,-372 227.38,-384 227.38,-384 227.38,-390 221.38,-396 215.38,-396"/>
<text text-anchor="middle" x="182.25" y="-374.12" font-family="sans" font-size="10.00">scrape_stadiums</text>
</g>
<!-- 8&#45;&gt;14 -->
<g id="edge21" class="edge">
<title>8&#45;&gt;14</title>
<path fill="none" stroke="grey" stroke-width="2" d="M129.17,-431.34C137.01,-423.6 146.39,-414.36 155.06,-405.81"/>
<polygon fill="grey" stroke="grey" stroke-width="2" points="157.43,-408.41 162.09,-398.9 152.51,-403.43 157.43,-408.41"/>
</g>
<!-- 9 -->
<g id="node10" class="node">
<title>9</title>
<path fill="none" stroke="#56d8d0" stroke-width="2" d="M188.62,-540C188.62,-540 105.88,-540 105.88,-540 99.88,-540 93.88,-534 93.88,-528 93.88,-528 93.88,-516 93.88,-516 93.88,-510 99.88,-504 105.88,-504 105.88,-504 188.62,-504 188.62,-504 194.62,-504 200.62,-510 200.62,-516 200.62,-516 200.62,-528 200.62,-528 200.62,-534 194.62,-540 188.62,-540"/>
<text text-anchor="middle" x="147.25" y="-518.12" font-family="sans" font-size="10.00">parse_match_sheets</text>
</g>
<!-- 9&#45;&gt;8 -->
<g id="edge14" class="edge">
<title>9&#45;&gt;8</title>
<path fill="none" stroke="grey" stroke-width="2" d="M138.17,-503.34C134.57,-496.34 130.34,-488.12 126.31,-480.28"/>
<polygon fill="grey" stroke="grey" stroke-width="2" points="129.14,-478.19 121.46,-470.9 122.92,-481.4 129.14,-478.19"/>
</g>
<!-- 10&#45;&gt;9 -->
<g id="edge15" class="edge">
<title>10&#45;&gt;9</title>
<path fill="none" stroke="grey" stroke-width="2" d="M148.75,-575.34C148.56,-568.75 148.34,-561.08 148.13,-553.67"/>
<polygon fill="grey" stroke="grey" stroke-width="2" points="151.55,-553.8 147.76,-543.9 144.55,-554 151.55,-553.8"/>
</g>
<!-- 11 -->
<g id="node12" class="node">
<title>11</title>
<path fill="none" stroke="#d87556" stroke-width="2" d="M230.75,-180C230.75,-180 115.75,-180 115.75,-180 109.75,-180 103.75,-174 103.75,-168 103.75,-168 103.75,-156 103.75,-156 103.75,-150 109.75,-144 115.75,-144 115.75,-144 230.75,-144 230.75,-144 236.75,-144 242.75,-150 242.75,-156 242.75,-156 242.75,-168 242.75,-168 242.75,-174 236.75,-180 230.75,-180"/>
<text text-anchor="middle" x="173.25" y="-158.12" font-family="sans" font-size="10.00">fill_missing_stadium_coords</text>
</g>
<!-- 11&#45;&gt;1 -->
<g id="edge6" class="edge">
<title>11&#45;&gt;1</title>
<path fill="none" stroke="grey" stroke-width="2" d="M143.17,-143.15C128.88,-134.68 111.59,-124.42 96.14,-115.25"/>
<polygon fill="grey" stroke="grey" stroke-width="2" points="97.66,-111.9 87.28,-109.81 94.09,-117.92 97.66,-111.9"/>
</g>
<!-- 15 -->
<g id="node16" class="node">
<title>15</title>
<path fill="none" stroke="#56c1d8" stroke-width="2" d="M230.38,-108C230.38,-108 140.12,-108 140.12,-108 134.12,-108 128.12,-102 128.12,-96 128.12,-96 128.12,-84 128.12,-84 128.12,-78 134.12,-72 140.12,-72 140.12,-72 230.38,-72 230.38,-72 236.38,-72 242.38,-78 242.38,-84 242.38,-84 242.38,-96 242.38,-96 242.38,-102 236.38,-108 230.38,-108"/>
<text text-anchor="middle" x="185.25" y="-86.12" font-family="sans" font-size="10.00">scrape_stadiums_osm</text>
</g>
<!-- 11&#45;&gt;15 -->
<g id="edge22" class="edge">
<title>11&#45;&gt;15</title>
<path fill="none" stroke="grey" stroke-width="2" d="M176.28,-143.34C177.41,-136.75 178.72,-129.08 179.99,-121.67"/>
<polygon fill="grey" stroke="grey" stroke-width="2" points="183.94,-121.35 182.18,-110.9 177.04,-120.17 183.94,-121.35"/>
</g>
<!-- 12&#45;&gt;11 -->
<g id="edge17" class="edge">
<title>12&#45;&gt;11</title>
<path fill="none" stroke="grey" stroke-width="2" d="M173.25,-215.34C173.25,-208.75 173.25,-201.08 173.25,-193.67"/>
<polygon fill="grey" stroke="grey" stroke-width="2" points="176.75,-193.9 173.25,-183.9 169.75,-193.9 176.75,-193.9"/>
</g>
<!-- 13 -->
<g id="node14" class="node">
<title>13</title>
<path fill="none" stroke="#d85656" stroke-width="2" d="M211.75,-324C211.75,-324 150.75,-324 150.75,-324 144.75,-324 138.75,-318 138.75,-312 138.75,-312 138.75,-300 138.75,-300 138.75,-294 144.75,-288 150.75,-288 150.75,-288 211.75,-288 211.75,-288 217.75,-288 223.75,-294 223.75,-300 223.75,-300 223.75,-312 223.75,-312 223.75,-318 217.75,-324 211.75,-324"/>
<text text-anchor="middle" x="181.25" y="-302.12" font-family="sans" font-size="10.00">parse_stadiums</text>
</g>
<!-- 13&#45;&gt;12 -->
<g id="edge18" class="edge">
<title>13&#45;&gt;12</title>
<path fill="none" stroke="grey" stroke-width="2" d="M179.23,-287.34C178.48,-280.75 177.6,-273.08 176.75,-265.67"/>
<polygon fill="grey" stroke="grey" stroke-width="2" points="179.91,-265.44 175.3,-255.9 172.95,-266.23 179.91,-265.44"/>
</g>
<!-- 14&#45;&gt;13 -->
<g id="edge20" class="edge">
<title>14&#45;&gt;13</title>
<path fill="none" stroke="grey" stroke-width="2" d="M182,-359.34C181.9,-352.75 181.79,-345.08 181.69,-337.67"/>
<polygon fill="grey" stroke="grey" stroke-width="2" points="185.15,-337.85 181.51,-327.9 178.15,-337.95 185.15,-337.85"/>
</g>
<!-- 15&#45;&gt;0 -->
<g id="edge2" class="edge">
<title>15&#45;&gt;0</title>
<path fill="none" stroke="grey" stroke-width="2" d="M185.25,-71.34C185.25,-64.75 185.25,-57.08 185.25,-49.67"/>
<polygon fill="grey" stroke="grey" stroke-width="2" points="188.75,-49.9 185.25,-39.9 181.75,-49.9 188.75,-49.9"/>
</g>
<!-- 16 -->
<g id="node17" class="node">
<title>16</title>
<path fill="none" stroke="#61d856" stroke-width="2" d="M304.12,-108C304.12,-108 272.38,-108 272.38,-108 266.38,-108 260.38,-102 260.38,-96 260.38,-96 260.38,-84 260.38,-84 260.38,-78 266.38,-72 272.38,-72 272.38,-72 304.12,-72 304.12,-72 310.12,-72 316.12,-78 316.12,-84 316.12,-84 316.12,-96 316.12,-96 316.12,-102 310.12,-108 304.12,-108"/>
<text text-anchor="middle" x="288.25" y="-86.12" font-family="sans" font-size="10.00">rulegraph</text>
</g>
<!-- 16&#45;&gt;0 -->
<g id="edge3" class="edge">
<title>16&#45;&gt;0</title>
<path fill="none" stroke="grey" stroke-width="2" d="M261.99,-71.15C249.89,-62.93 235.31,-53.02 222.12,-44.06"/>
<polygon fill="grey" stroke="grey" stroke-width="2" points="223.7,-40.54 213.46,-37.81 219.76,-46.33 223.7,-40.54"/>
</g>
</g>
</svg>
