<?xml version="1.0" encoding="UTF-8" standalone="no"?>
<!DOCTYPE svg PUBLIC "-//W3C//DTD SVG 1.1//EN"
 "http://www.w3.org/Graphics/SVG/1.1/DTD/svg11.dtd">
<!-- Generated by graphviz version 8.0.3 (20230416.2022)
 -->
<!-- Title: snakemake_dag Pages: 1 -->
<svg width="352pt" height="404pt"
 viewBox="0.00 0.00 352.00 404.00" xmlns="http://www.w3.org/2000/svg" xmlns:xlink="http://www.w3.org/1999/xlink">
<g id="graph0" class="graph" transform="scale(1 1) rotate(0) translate(4 400)">
<title>snakemake_dag</title>
<polygon fill="white" stroke="none" points="-4,4 -4,-400 348,-400 348,4 -4,4"/>
<!-- 0 -->
<g id="node1" class="node">
<title>0</title>
<path fill="none" stroke="#d8a456" stroke-width="2" d="M221,-36C221,-36 191,-36 191,-36 185,-36 179,-30 179,-24 179,-24 179,-12 179,-12 179,-6 185,0 191,0 191,0 221,0 221,0 227,0 233,-6 233,-12 233,-12 233,-24 233,-24 233,-30 227,-36 221,-36"/>
<text text-anchor="middle" x="206" y="-15.5" font-family="sans" font-size="10.00">all</text>
</g>
<!-- 1 -->
<g id="node2" class="node">
<title>1</title>
<path fill="none" stroke="#56d8a2" stroke-width="2" d="M185,-108C185,-108 155,-108 155,-108 149,-108 143,-102 143,-96 143,-96 143,-84 143,-84 143,-78 149,-72 155,-72 155,-72 185,-72 185,-72 191,-72 197,-78 197,-84 197,-84 197,-96 197,-96 197,-102 191,-108 185,-108"/>
<text text-anchor="middle" x="170" y="-87.5" font-family="sans" font-size="10.00">qa</text>
</g>
<!-- 1&#45;&gt;0 -->
<g id="edge1" class="edge">
<title>1&#45;&gt;0</title>
<path fill="none" stroke="grey" stroke-width="2" d="M179.08,-71.34C182.68,-64.34 186.91,-56.12 190.94,-48.28"/>
<polygon fill="grey" stroke="grey" stroke-width="2" points="194.33,-49.4 195.79,-38.9 188.11,-46.19 194.33,-49.4"/>
</g>
<!-- 2 -->
<g id="node3" class="node">
<title>2</title>
<path fill="none" stroke="#56a2d8" stroke-width="2" d="M66,-180C66,-180 12,-180 12,-180 6,-180 0,-174 0,-168 0,-168 0,-156 0,-156 0,-150 6,-144 12,-144 12,-144 66,-144 66,-144 72,-144 78,-150 78,-156 78,-156 78,-168 78,-168 78,-174 72,-180 66,-180"/>
<text text-anchor="middle" x="39" y="-159.5" font-family="sans" font-size="10.00">concat_teams</text>
</g>
<!-- 2&#45;&gt;1 -->
<g id="edge4" class="edge">
<title>2&#45;&gt;1</title>
<path fill="none" stroke="grey" stroke-width="2" d="M72.4,-143.15C90.26,-133.61 112.37,-121.79 131.02,-111.83"/>
<polygon fill="grey" stroke="grey" stroke-width="2" points="133.24,-114.54 140.41,-106.74 129.94,-108.37 133.24,-114.54"/>
</g>
<!-- 3 -->
<g id="node4" class="node">
<title>3</title>
<path fill="none" stroke="#567bd8" stroke-width="2" d="M63.5,-252C63.5,-252 14.5,-252 14.5,-252 8.5,-252 2.5,-246 2.5,-240 2.5,-240 2.5,-228 2.5,-228 2.5,-222 8.5,-216 14.5,-216 14.5,-216 63.5,-216 63.5,-216 69.5,-216 75.5,-222 75.5,-228 75.5,-228 75.5,-240 75.5,-240 75.5,-246 69.5,-252 63.5,-252"/>
<text text-anchor="middle" x="39" y="-231.5" font-family="sans" font-size="10.00">parse_teams</text>
</g>
<!-- 3&#45;&gt;2 -->
<g id="edge7" class="edge">
<title>3&#45;&gt;2</title>
<path fill="none" stroke="grey" stroke-width="2" d="M39,-215.34C39,-208.75 39,-201.08 39,-193.67"/>
<polygon fill="grey" stroke="grey" stroke-width="2" points="42.5,-193.9 39,-183.9 35.5,-193.9 42.5,-193.9"/>
</g>
<!-- 4 -->
<g id="node5" class="node">
<title>4</title>
<path fill="none" stroke="#c6d856" stroke-width="2" d="M66,-324C66,-324 12,-324 12,-324 6,-324 0,-318 0,-312 0,-312 0,-300 0,-300 0,-294 6,-288 12,-288 12,-288 66,-288 66,-288 72,-288 78,-294 78,-300 78,-300 78,-312 78,-312 78,-318 72,-324 66,-324"/>
<text text-anchor="middle" x="39" y="-303.5" font-family="sans" font-size="10.00">scrape_teams</text>
</g>
<!-- 4&#45;&gt;3 -->
<g id="edge8" class="edge">
<title>4&#45;&gt;3</title>
<path fill="none" stroke="grey" stroke-width="2" d="M39,-287.34C39,-280.75 39,-273.08 39,-265.67"/>
<polygon fill="grey" stroke="grey" stroke-width="2" points="42.5,-265.9 39,-255.9 35.5,-265.9 42.5,-265.9"/>
</g>
<!-- 5 -->
<g id="node6" class="node">
<title>5</title>
<path fill="none" stroke="#56c9d8" stroke-width="2" d="M164,-180C164,-180 108,-180 108,-180 102,-180 96,-174 96,-168 96,-168 96,-156 96,-156 96,-150 102,-144 108,-144 108,-144 164,-144 164,-144 170,-144 176,-150 176,-156 176,-156 176,-168 176,-168 176,-174 170,-180 164,-180"/>
<text text-anchor="middle" x="136" y="-159.5" font-family="sans" font-size="10.00">concat_games</text>
</g>
<!-- 5&#45;&gt;1 -->
<g id="edge3" class="edge">
<title>5&#45;&gt;1</title>
<path fill="none" stroke="grey" stroke-width="2" d="M144.58,-143.34C147.94,-136.43 151.88,-128.31 155.64,-120.56"/>
<polygon fill="grey" stroke="grey" stroke-width="2" points="159.08,-121.43 160.3,-110.9 152.79,-118.37 159.08,-121.43"/>
</g>
<!-- 6 -->
<g id="node7" class="node">
<title>6</title>
<path fill="none" stroke="#78d856" stroke-width="2" d="M161.5,-252C161.5,-252 110.5,-252 110.5,-252 104.5,-252 98.5,-246 98.5,-240 98.5,-240 98.5,-228 98.5,-228 98.5,-222 104.5,-216 110.5,-216 110.5,-216 161.5,-216 161.5,-216 167.5,-216 173.5,-222 173.5,-228 173.5,-228 173.5,-240 173.5,-240 173.5,-246 167.5,-252 161.5,-252"/>
<text text-anchor="middle" x="136" y="-231.5" font-family="sans" font-size="10.00">parse_games</text>
</g>
<!-- 6&#45;&gt;5 -->
<g id="edge9" class="edge">
<title>6&#45;&gt;5</title>
<path fill="none" stroke="grey" stroke-width="2" d="M136,-215.34C136,-208.75 136,-201.08 136,-193.67"/>
<polygon fill="grey" stroke="grey" stroke-width="2" points="139.5,-193.9 136,-183.9 132.5,-193.9 139.5,-193.9"/>
</g>
<!-- 7 -->
<g id="node8" class="node">
<title>7</title>
<path fill="none" stroke="#56d8c9" stroke-width="2" d="M164,-324C164,-324 108,-324 108,-324 102,-324 96,-318 96,-312 96,-312 96,-300 96,-300 96,-294 102,-288 108,-288 108,-288 164,-288 164,-288 170,-288 176,-294 176,-300 176,-300 176,-312 176,-312 176,-318 170,-324 164,-324"/>
<text text-anchor="middle" x="136" y="-303.5" font-family="sans" font-size="10.00">scrape_games</text>
</g>
<!-- 7&#45;&gt;6 -->
<g id="edge10" class="edge">
<title>7&#45;&gt;6</title>
<path fill="none" stroke="grey" stroke-width="2" d="M136,-287.34C136,-280.75 136,-273.08 136,-265.67"/>
<polygon fill="grey" stroke="grey" stroke-width="2" points="139.5,-265.9 136,-255.9 132.5,-265.9 139.5,-265.9"/>
</g>
<!-- 8 -->
<g id="node9" class="node">
<title>8</title>
<path fill="none" stroke="#59d856" stroke-width="2" d="M295.5,-252C295.5,-252 228.5,-252 228.5,-252 222.5,-252 216.5,-246 216.5,-240 216.5,-240 216.5,-228 216.5,-228 216.5,-222 222.5,-216 228.5,-216 228.5,-216 295.5,-216 295.5,-216 301.5,-216 307.5,-222 307.5,-228 307.5,-228 307.5,-240 307.5,-240 307.5,-246 301.5,-252 295.5,-252"/>
<text text-anchor="middle" x="262" y="-231.5" font-family="sans" font-size="10.00">concat_stadiums</text>
</g>
<!-- 8&#45;&gt;1 -->
<g id="edge6" class="edge">
<title>8&#45;&gt;1</title>
<path fill="none" stroke="grey" stroke-width="2" d="M248.2,-215.16C240.53,-205.02 230.96,-191.99 223,-180 209.99,-160.4 196.44,-137.59 186.3,-119.97"/>
<polygon fill="grey" stroke="grey" stroke-width="2" points="188.86,-117.65 180.87,-110.7 182.78,-121.12 188.86,-117.65"/>
</g>
<!-- 11 -->
<g id="node12" class="node">
<title>11</title>
<path fill="none" stroke="#d85656" stroke-width="2" d="M332,-180C332,-180 244,-180 244,-180 238,-180 232,-174 232,-168 232,-168 232,-156 232,-156 232,-150 238,-144 244,-144 244,-144 332,-144 332,-144 338,-144 344,-150 344,-156 344,-156 344,-168 344,-168 344,-174 338,-180 332,-180"/>
<text text-anchor="middle" x="288" y="-159.5" font-family="sans" font-size="10.00">scrape_stadiums_geo</text>
</g>
<!-- 8&#45;&gt;11 -->
<g id="edge13" class="edge">
<title>8&#45;&gt;11</title>
<path fill="none" stroke="grey" stroke-width="2" d="M268.56,-215.34C271.1,-208.51 274.07,-200.5 276.92,-192.83"/>
<polygon fill="grey" stroke="grey" stroke-width="2" points="280.15,-193.49 280.35,-182.9 273.59,-191.06 280.15,-193.49"/>
</g>
<!-- 9 -->
<g id="node10" class="node">
<title>9</title>
<path fill="none" stroke="#d8c356" stroke-width="2" d="M293,-324C293,-324 231,-324 231,-324 225,-324 219,-318 219,-312 219,-312 219,-300 219,-300 219,-294 225,-288 231,-288 231,-288 293,-288 293,-288 299,-288 305,-294 305,-300 305,-300 305,-312 305,-312 305,-318 299,-324 293,-324"/>
<text text-anchor="middle" x="262" y="-303.5" font-family="sans" font-size="10.00">parse_stadiums</text>
</g>
<!-- 9&#45;&gt;8 -->
<g id="edge11" class="edge">
<title>9&#45;&gt;8</title>
<path fill="none" stroke="grey" stroke-width="2" d="M262,-287.34C262,-280.75 262,-273.08 262,-265.67"/>
<polygon fill="grey" stroke="grey" stroke-width="2" points="265.5,-265.9 262,-255.9 258.5,-265.9 265.5,-265.9"/>
</g>
<!-- 10 -->
<g id="node11" class="node">
<title>10</title>
<path fill="none" stroke="#9fd856" stroke-width="2" d="M295.5,-396C295.5,-396 228.5,-396 228.5,-396 222.5,-396 216.5,-390 216.5,-384 216.5,-384 216.5,-372 216.5,-372 216.5,-366 222.5,-360 228.5,-360 228.5,-360 295.5,-360 295.5,-360 301.5,-360 307.5,-366 307.5,-372 307.5,-372 307.5,-384 307.5,-384 307.5,-390 301.5,-396 295.5,-396"/>
<text text-anchor="middle" x="262" y="-375.5" font-family="sans" font-size="10.00">scrape_stadiums</text>
</g>
<!-- 10&#45;&gt;9 -->
<g id="edge12" class="edge">
<title>10&#45;&gt;9</title>
<path fill="none" stroke="grey" stroke-width="2" d="M262,-359.34C262,-352.75 262,-345.08 262,-337.67"/>
<polygon fill="grey" stroke="grey" stroke-width="2" points="265.5,-337.9 262,-327.9 258.5,-337.9 265.5,-337.9"/>
</g>
<!-- 11&#45;&gt;1 -->
<g id="edge5" class="edge">
<title>11&#45;&gt;1</title>
<path fill="none" stroke="grey" stroke-width="2" d="M257.92,-143.15C242.97,-134.29 224.74,-123.47 208.76,-113.99"/>
<polygon fill="grey" stroke="grey" stroke-width="2" points="209.99,-110.47 199.6,-108.37 206.42,-116.49 209.99,-110.47"/>
</g>
<!-- 12 -->
<g id="node13" class="node">
<title>12</title>
<path fill="none" stroke="#56d87b" stroke-width="2" d="M259,-108C259,-108 227,-108 227,-108 221,-108 215,-102 215,-96 215,-96 215,-84 215,-84 215,-78 221,-72 227,-72 227,-72 259,-72 259,-72 265,-72 271,-78 271,-84 271,-84 271,-96 271,-96 271,-102 265,-108 259,-108"/>
<text text-anchor="middle" x="243" y="-87.5" font-family="sans" font-size="10.00">rulegraph</text>
</g>
<!-- 12&#45;&gt;0 -->
<g id="edge2" class="edge">
<title>12&#45;&gt;0</title>
<path fill="none" stroke="grey" stroke-width="2" d="M233.66,-71.34C229.97,-64.34 225.62,-56.12 221.48,-48.28"/>
<polygon fill="grey" stroke="grey" stroke-width="2" points="224.23,-46.11 216.46,-38.9 218.04,-49.38 224.23,-46.11"/>
</g>
</g>
</svg>
