<?xml version="1.0" encoding="UTF-8" standalone="no"?>
<!DOCTYPE svg PUBLIC "-//W3C//DTD SVG 1.1//EN"
 "http://www.w3.org/Graphics/SVG/1.1/DTD/svg11.dtd">
<!-- Generated by graphviz version 8.0.3 (20230416.2022)
 -->
<!-- Title: snakemake_dag Pages: 1 -->
<svg width="327pt" height="908pt"
 viewBox="0.00 0.00 326.50 908.00" xmlns="http://www.w3.org/2000/svg" xmlns:xlink="http://www.w3.org/1999/xlink">
<g id="graph0" class="graph" transform="scale(1 1) rotate(0) translate(4 904)">
<title>snakemake_dag</title>
<polygon fill="white" stroke="none" points="-4,4 -4,-904 322.5,-904 322.5,4 -4,4"/>
<!-- 0 -->
<g id="node1" class="node">
<title>0</title>
<path fill="none" stroke="#568ad8" stroke-width="2" d="M201.5,-36C201.5,-36 171.5,-36 171.5,-36 165.5,-36 159.5,-30 159.5,-24 159.5,-24 159.5,-12 159.5,-12 159.5,-6 165.5,0 171.5,0 171.5,0 201.5,0 201.5,0 207.5,0 213.5,-6 213.5,-12 213.5,-12 213.5,-24 213.5,-24 213.5,-30 207.5,-36 201.5,-36"/>
<text text-anchor="middle" x="186.5" y="-15.5" font-family="sans" font-size="10.00">all</text>
</g>
<!-- 1 -->
<g id="node2" class="node">
<title>1</title>
<path fill="none" stroke="#d8c356" stroke-width="2" d="M99,-108C99,-108 12,-108 12,-108 6,-108 0,-102 0,-96 0,-96 0,-84 0,-84 0,-78 6,-72 12,-72 12,-72 99,-72 99,-72 105,-72 111,-78 111,-84 111,-84 111,-96 111,-96 111,-102 105,-108 99,-108"/>
<text text-anchor="middle" x="55.5" y="-87.5" font-family="sans" font-size="10.00">join_games_stadiums</text>
</g>
<!-- 1&#45;&gt;0 -->
<g id="edge3" class="edge">
<title>1&#45;&gt;0</title>
<path fill="none" stroke="grey" stroke-width="2" d="M88.9,-71.15C106.76,-61.61 128.87,-49.79 147.52,-39.83"/>
<polygon fill="grey" stroke="grey" stroke-width="2" points="149.74,-42.54 156.91,-34.74 146.44,-36.37 149.74,-42.54"/>
</g>
<!-- 2 -->
<g id="node3" class="node">
<title>2</title>
<path fill="none" stroke="#61d856" stroke-width="2" d="M94.5,-684C94.5,-684 38.5,-684 38.5,-684 32.5,-684 26.5,-678 26.5,-672 26.5,-672 26.5,-660 26.5,-660 26.5,-654 32.5,-648 38.5,-648 38.5,-648 94.5,-648 94.5,-648 100.5,-648 106.5,-654 106.5,-660 106.5,-660 106.5,-672 106.5,-672 106.5,-678 100.5,-684 94.5,-684"/>
<text text-anchor="middle" x="66.5" y="-663.5" font-family="sans" font-size="10.00">concat_games</text>
</g>
<!-- 2&#45;&gt;1 -->
<g id="edge6" class="edge">
<title>2&#45;&gt;1</title>
<path fill="none" stroke="grey" stroke-width="2" d="M58.44,-647.03C47.29,-620.48 28.5,-568.94 28.5,-523 28.5,-523 28.5,-523 28.5,-233 28.5,-193.79 38.56,-149.54 46.4,-121.02"/>
<polygon fill="grey" stroke="grey" stroke-width="2" points="50.53,-121.3 49.91,-110.73 43.79,-119.38 50.53,-121.3"/>
</g>
<!-- 6 -->
<g id="node7" class="node">
<title>6</title>
<path fill="none" stroke="#80d856" stroke-width="2" d="M158,-468C158,-468 69,-468 69,-468 63,-468 57,-462 57,-456 57,-456 57,-444 57,-444 57,-438 63,-432 69,-432 69,-432 158,-432 158,-432 164,-432 170,-438 170,-444 170,-444 170,-456 170,-456 170,-462 164,-468 158,-468"/>
<text text-anchor="middle" x="113.5" y="-447.5" font-family="sans" font-size="10.00">concat_match_sheets</text>
</g>
<!-- 2&#45;&gt;6 -->
<g id="edge11" class="edge">
<title>2&#45;&gt;6</title>
<path fill="none" stroke="grey" stroke-width="2" d="M66.71,-647.19C67.51,-617.05 71.07,-554.36 86.5,-504 88.93,-496.06 92.5,-487.88 96.25,-480.39"/>
<polygon fill="grey" stroke="grey" stroke-width="2" points="99.73,-481.45 101.36,-470.98 93.56,-478.14 99.73,-481.45"/>
</g>
<!-- 8 -->
<g id="node9" class="node">
<title>8</title>
<path fill="none" stroke="#56d8d0" stroke-width="2" d="M196,-612C196,-612 107,-612 107,-612 101,-612 95,-606 95,-600 95,-600 95,-588 95,-588 95,-582 101,-576 107,-576 107,-576 196,-576 196,-576 202,-576 208,-582 208,-588 208,-588 208,-600 208,-600 208,-606 202,-612 196,-612"/>
<text text-anchor="middle" x="151.5" y="-591.5" font-family="sans" font-size="10.00">scrape_match_sheets</text>
</g>
<!-- 2&#45;&gt;8 -->
<g id="edge13" class="edge">
<title>2&#45;&gt;8</title>
<path fill="none" stroke="grey" stroke-width="2" d="M87.95,-647.34C97.64,-639.36 109.28,-629.77 119.94,-620.99"/>
<polygon fill="grey" stroke="grey" stroke-width="2" points="122.27,-622.96 127.76,-613.9 117.82,-617.56 122.27,-622.96"/>
</g>
<!-- 3 -->
<g id="node4" class="node">
<title>3</title>
<path fill="none" stroke="#d87556" stroke-width="2" d="M93.5,-756C93.5,-756 39.5,-756 39.5,-756 33.5,-756 27.5,-750 27.5,-744 27.5,-744 27.5,-732 27.5,-732 27.5,-726 33.5,-720 39.5,-720 39.5,-720 93.5,-720 93.5,-720 99.5,-720 105.5,-726 105.5,-732 105.5,-732 105.5,-744 105.5,-744 105.5,-750 99.5,-756 93.5,-756"/>
<text text-anchor="middle" x="66.5" y="-735.5" font-family="sans" font-size="10.00">concat_teams</text>
</g>
<!-- 3&#45;&gt;2 -->
<g id="edge7" class="edge">
<title>3&#45;&gt;2</title>
<path fill="none" stroke="grey" stroke-width="2" d="M66.5,-719.34C66.5,-712.75 66.5,-705.08 66.5,-697.67"/>
<polygon fill="grey" stroke="grey" stroke-width="2" points="70,-697.9 66.5,-687.9 63,-697.9 70,-697.9"/>
</g>
<!-- 4 -->
<g id="node5" class="node">
<title>4</title>
<path fill="none" stroke="#56d882" stroke-width="2" d="M91,-828C91,-828 42,-828 42,-828 36,-828 30,-822 30,-816 30,-816 30,-804 30,-804 30,-798 36,-792 42,-792 42,-792 91,-792 91,-792 97,-792 103,-798 103,-804 103,-804 103,-816 103,-816 103,-822 97,-828 91,-828"/>
<text text-anchor="middle" x="66.5" y="-807.5" font-family="sans" font-size="10.00">parse_teams</text>
</g>
<!-- 4&#45;&gt;3 -->
<g id="edge8" class="edge">
<title>4&#45;&gt;3</title>
<path fill="none" stroke="grey" stroke-width="2" d="M66.5,-791.34C66.5,-784.75 66.5,-777.08 66.5,-769.67"/>
<polygon fill="grey" stroke="grey" stroke-width="2" points="70,-769.9 66.5,-759.9 63,-769.9 70,-769.9"/>
</g>
<!-- 5 -->
<g id="node6" class="node">
<title>5</title>
<path fill="none" stroke="#d85656" stroke-width="2" d="M93.5,-900C93.5,-900 39.5,-900 39.5,-900 33.5,-900 27.5,-894 27.5,-888 27.5,-888 27.5,-876 27.5,-876 27.5,-870 33.5,-864 39.5,-864 39.5,-864 93.5,-864 93.5,-864 99.5,-864 105.5,-870 105.5,-876 105.5,-876 105.5,-888 105.5,-888 105.5,-894 99.5,-900 93.5,-900"/>
<text text-anchor="middle" x="66.5" y="-879.5" font-family="sans" font-size="10.00">scrape_teams</text>
</g>
<!-- 5&#45;&gt;4 -->
<g id="edge9" class="edge">
<title>5&#45;&gt;4</title>
<path fill="none" stroke="grey" stroke-width="2" d="M66.5,-863.34C66.5,-856.75 66.5,-849.08 66.5,-841.67"/>
<polygon fill="grey" stroke="grey" stroke-width="2" points="70,-841.9 66.5,-831.9 63,-841.9 70,-841.9"/>
</g>
<!-- 6&#45;&gt;1 -->
<g id="edge5" class="edge">
<title>6&#45;&gt;1</title>
<path fill="none" stroke="grey" stroke-width="2" d="M103.96,-431.19C90.75,-404.84 68.5,-353.55 68.5,-307 68.5,-307 68.5,-307 68.5,-233 68.5,-194.49 63.7,-150.36 59.93,-121.65"/>
<polygon fill="grey" stroke="grey" stroke-width="2" points="63.01,-120.32 58.19,-110.88 56.08,-121.27 63.01,-120.32"/>
</g>
<!-- 10 -->
<g id="node11" class="node">
<title>10</title>
<path fill="none" stroke="#56a9d8" stroke-width="2" d="M208,-252C208,-252 141,-252 141,-252 135,-252 129,-246 129,-240 129,-240 129,-228 129,-228 129,-222 135,-216 141,-216 141,-216 208,-216 208,-216 214,-216 220,-222 220,-228 220,-228 220,-240 220,-240 220,-246 214,-252 208,-252"/>
<text text-anchor="middle" x="174.5" y="-231.5" font-family="sans" font-size="10.00">concat_stadiums</text>
</g>
<!-- 6&#45;&gt;10 -->
<g id="edge15" class="edge">
<title>6&#45;&gt;10</title>
<path fill="none" stroke="grey" stroke-width="2" d="M112.12,-431.26C110.43,-400.69 109.97,-336.69 130.5,-288 134.33,-278.91 140.27,-270.17 146.55,-262.51"/>
<polygon fill="grey" stroke="grey" stroke-width="2" points="149.15,-264.59 153.16,-254.79 143.91,-259.95 149.15,-264.59"/>
</g>
<!-- 12 -->
<g id="node13" class="node">
<title>12</title>
<path fill="none" stroke="#d88d56" stroke-width="2" d="M218,-396C218,-396 151,-396 151,-396 145,-396 139,-390 139,-384 139,-384 139,-372 139,-372 139,-366 145,-360 151,-360 151,-360 218,-360 218,-360 224,-360 230,-366 230,-372 230,-372 230,-384 230,-384 230,-390 224,-396 218,-396"/>
<text text-anchor="middle" x="184.5" y="-375.5" font-family="sans" font-size="10.00">scrape_stadiums</text>
</g>
<!-- 6&#45;&gt;12 -->
<g id="edge18" class="edge">
<title>6&#45;&gt;12</title>
<path fill="none" stroke="grey" stroke-width="2" d="M131.42,-431.34C139.26,-423.6 148.64,-414.36 157.31,-405.81"/>
<polygon fill="grey" stroke="grey" stroke-width="2" points="159.68,-408.41 164.34,-398.9 154.76,-403.43 159.68,-408.41"/>
</g>
<!-- 7 -->
<g id="node8" class="node">
<title>7</title>
<path fill="none" stroke="#56d863" stroke-width="2" d="M191,-540C191,-540 108,-540 108,-540 102,-540 96,-534 96,-528 96,-528 96,-516 96,-516 96,-510 102,-504 108,-504 108,-504 191,-504 191,-504 197,-504 203,-510 203,-516 203,-516 203,-528 203,-528 203,-534 197,-540 191,-540"/>
<text text-anchor="middle" x="149.5" y="-519.5" font-family="sans" font-size="10.00">parse_match_sheets</text>
</g>
<!-- 7&#45;&gt;6 -->
<g id="edge10" class="edge">
<title>7&#45;&gt;6</title>
<path fill="none" stroke="grey" stroke-width="2" d="M140.42,-503.34C136.82,-496.34 132.59,-488.12 128.56,-480.28"/>
<polygon fill="grey" stroke="grey" stroke-width="2" points="131.39,-478.19 123.71,-470.9 125.17,-481.4 131.39,-478.19"/>
</g>
<!-- 8&#45;&gt;7 -->
<g id="edge12" class="edge">
<title>8&#45;&gt;7</title>
<path fill="none" stroke="grey" stroke-width="2" d="M151,-575.34C150.81,-568.75 150.59,-561.08 150.38,-553.67"/>
<polygon fill="grey" stroke="grey" stroke-width="2" points="153.8,-553.8 150.01,-543.9 146.8,-554 153.8,-553.8"/>
</g>
<!-- 9 -->
<g id="node10" class="node">
<title>9</title>
<path fill="none" stroke="#56c1d8" stroke-width="2" d="M232.5,-180C232.5,-180 116.5,-180 116.5,-180 110.5,-180 104.5,-174 104.5,-168 104.5,-168 104.5,-156 104.5,-156 104.5,-150 110.5,-144 116.5,-144 116.5,-144 232.5,-144 232.5,-144 238.5,-144 244.5,-150 244.5,-156 244.5,-156 244.5,-168 244.5,-168 244.5,-174 238.5,-180 232.5,-180"/>
<text text-anchor="middle" x="174.5" y="-159.5" font-family="sans" font-size="10.00">fill_missing_stadium_coords</text>
</g>
<!-- 9&#45;&gt;1 -->
<g id="edge4" class="edge">
<title>9&#45;&gt;1</title>
<path fill="none" stroke="grey" stroke-width="2" d="M144.16,-143.15C129.76,-134.68 112.32,-124.42 96.73,-115.25"/>
<polygon fill="grey" stroke="grey" stroke-width="2" points="98.18,-111.87 87.78,-109.81 94.63,-117.9 98.18,-111.87"/>
</g>
<!-- 13 -->
<g id="node14" class="node">
<title>13</title>
<path fill="none" stroke="#d8ac56" stroke-width="2" d="M232,-108C232,-108 141,-108 141,-108 135,-108 129,-102 129,-96 129,-96 129,-84 129,-84 129,-78 135,-72 141,-72 141,-72 232,-72 232,-72 238,-72 244,-78 244,-84 244,-84 244,-96 244,-96 244,-102 238,-108 232,-108"/>
<text text-anchor="middle" x="186.5" y="-87.5" font-family="sans" font-size="10.00">scrape_stadiums_osm</text>
</g>
<!-- 9&#45;&gt;13 -->
<g id="edge19" class="edge">
<title>9&#45;&gt;13</title>
<path fill="none" stroke="grey" stroke-width="2" d="M177.53,-143.34C178.66,-136.75 179.97,-129.08 181.24,-121.67"/>
<polygon fill="grey" stroke="grey" stroke-width="2" points="185.19,-121.35 183.43,-110.9 178.29,-120.17 185.19,-121.35"/>
</g>
<!-- 10&#45;&gt;9 -->
<g id="edge14" class="edge">
<title>10&#45;&gt;9</title>
<path fill="none" stroke="grey" stroke-width="2" d="M174.5,-215.34C174.5,-208.75 174.5,-201.08 174.5,-193.67"/>
<polygon fill="grey" stroke="grey" stroke-width="2" points="178,-193.9 174.5,-183.9 171,-193.9 178,-193.9"/>
</g>
<!-- 11 -->
<g id="node12" class="node">
<title>11</title>
<path fill="none" stroke="#56d8b9" stroke-width="2" d="M213.5,-324C213.5,-324 151.5,-324 151.5,-324 145.5,-324 139.5,-318 139.5,-312 139.5,-312 139.5,-300 139.5,-300 139.5,-294 145.5,-288 151.5,-288 151.5,-288 213.5,-288 213.5,-288 219.5,-288 225.5,-294 225.5,-300 225.5,-300 225.5,-312 225.5,-312 225.5,-318 219.5,-324 213.5,-324"/>
<text text-anchor="middle" x="182.5" y="-303.5" font-family="sans" font-size="10.00">parse_stadiums</text>
</g>
<!-- 11&#45;&gt;10 -->
<g id="edge16" class="edge">
<title>11&#45;&gt;10</title>
<path fill="none" stroke="grey" stroke-width="2" d="M180.48,-287.34C179.73,-280.75 178.85,-273.08 178,-265.67"/>
<polygon fill="grey" stroke="grey" stroke-width="2" points="181.16,-265.44 176.55,-255.9 174.2,-266.23 181.16,-265.44"/>
</g>
<!-- 12&#45;&gt;11 -->
<g id="edge17" class="edge">
<title>12&#45;&gt;11</title>
<path fill="none" stroke="grey" stroke-width="2" d="M184,-359.34C183.81,-352.75 183.59,-345.08 183.38,-337.67"/>
<polygon fill="grey" stroke="grey" stroke-width="2" points="186.8,-337.8 183.01,-327.9 179.8,-338 186.8,-337.8"/>
</g>
<!-- 13&#45;&gt;0 -->
<g id="edge2" class="edge">
<title>13&#45;&gt;0</title>
<path fill="none" stroke="grey" stroke-width="2" d="M186.5,-71.34C186.5,-64.75 186.5,-57.08 186.5,-49.67"/>
<polygon fill="grey" stroke="grey" stroke-width="2" points="190,-49.9 186.5,-39.9 183,-49.9 190,-49.9"/>
</g>
<!-- 14 -->
<g id="node15" class="node">
<title>14</title>
<path fill="none" stroke="#ced856" stroke-width="2" d="M306.5,-108C306.5,-108 274.5,-108 274.5,-108 268.5,-108 262.5,-102 262.5,-96 262.5,-96 262.5,-84 262.5,-84 262.5,-78 268.5,-72 274.5,-72 274.5,-72 306.5,-72 306.5,-72 312.5,-72 318.5,-78 318.5,-84 318.5,-84 318.5,-96 318.5,-96 318.5,-102 312.5,-108 306.5,-108"/>
<text text-anchor="middle" x="290.5" y="-87.5" font-family="sans" font-size="10.00">rulegraph</text>
</g>
<!-- 14&#45;&gt;0 -->
<g id="edge1" class="edge">
<title>14&#45;&gt;0</title>
<path fill="none" stroke="grey" stroke-width="2" d="M263.99,-71.15C251.76,-62.93 237.04,-53.02 223.73,-44.06"/>
<polygon fill="grey" stroke="grey" stroke-width="2" points="225.21,-40.49 214.96,-37.81 221.31,-46.3 225.21,-40.49"/>
</g>
</g>
</svg>
