<?xml version="1.0" encoding="UTF-8" standalone="no"?>
<!DOCTYPE svg PUBLIC "-//W3C//DTD SVG 1.1//EN"
 "http://www.w3.org/Graphics/SVG/1.1/DTD/svg11.dtd">
<!-- Generated by graphviz version 8.0.3 (20230416.2022)
 -->
<!-- Title: snakemake_dag Pages: 1 -->
<svg width="232pt" height="1052pt"
 viewBox="0.00 0.00 231.50 1052.00" xmlns="http://www.w3.org/2000/svg" xmlns:xlink="http://www.w3.org/1999/xlink">
<g id="graph0" class="graph" transform="scale(1 1) rotate(0) translate(4 1048)">
<title>snakemake_dag</title>
<polygon fill="white" stroke="none" points="-4,4 -4,-1048 227.5,-1048 227.5,4 -4,4"/>
<!-- 0 -->
<g id="node1" class="node">
<title>0</title>
<path fill="none" stroke="#56d8d0" stroke-width="2" d="M121.5,-36C121.5,-36 91.5,-36 91.5,-36 85.5,-36 79.5,-30 79.5,-24 79.5,-24 79.5,-12 79.5,-12 79.5,-6 85.5,0 91.5,0 91.5,0 121.5,0 121.5,0 127.5,0 133.5,-6 133.5,-12 133.5,-12 133.5,-24 133.5,-24 133.5,-30 127.5,-36 121.5,-36"/>
<text text-anchor="middle" x="106.5" y="-15.5" font-family="sans" font-size="10.00">all</text>
</g>
<!-- 1 -->
<g id="node2" class="node">
<title>1</title>
<path fill="none" stroke="#568ad8" stroke-width="2" d="M99,-108C99,-108 12,-108 12,-108 6,-108 0,-102 0,-96 0,-96 0,-84 0,-84 0,-78 6,-72 12,-72 12,-72 99,-72 99,-72 105,-72 111,-78 111,-84 111,-84 111,-96 111,-96 111,-102 105,-108 99,-108"/>
<text text-anchor="middle" x="55.5" y="-87.5" font-family="sans" font-size="10.00">join_games_stadiums</text>
</g>
<!-- 1&#45;&gt;0 -->
<g id="edge1" class="edge">
<title>1&#45;&gt;0</title>
<path fill="none" stroke="grey" stroke-width="2" d="M68.37,-71.34C73.7,-64.01 80.03,-55.34 85.97,-47.18"/>
<polygon fill="grey" stroke="grey" stroke-width="2" points="89.4,-49.05 92.46,-38.9 83.74,-44.92 89.4,-49.05"/>
</g>
<!-- 2 -->
<g id="node3" class="node">
<title>2</title>
<path fill="none" stroke="#56d8b9" stroke-width="2" d="M81.5,-684C81.5,-684 25.5,-684 25.5,-684 19.5,-684 13.5,-678 13.5,-672 13.5,-672 13.5,-660 13.5,-660 13.5,-654 19.5,-648 25.5,-648 25.5,-648 81.5,-648 81.5,-648 87.5,-648 93.5,-654 93.5,-660 93.5,-660 93.5,-672 93.5,-672 93.5,-678 87.5,-684 81.5,-684"/>
<text text-anchor="middle" x="53.5" y="-663.5" font-family="sans" font-size="10.00">concat_games</text>
</g>
<!-- 2&#45;&gt;1 -->
<g id="edge3" class="edge">
<title>2&#45;&gt;1</title>
<path fill="none" stroke="grey" stroke-width="2" d="M45.44,-647.03C34.29,-620.48 15.5,-568.94 15.5,-523 15.5,-523 15.5,-523 15.5,-233 15.5,-193.02 30.37,-149 41.98,-120.73"/>
<polygon fill="grey" stroke="grey" stroke-width="2" points="45.31,-121.5 46.02,-110.92 38.87,-118.75 45.31,-121.5"/>
</g>
<!-- 8 -->
<g id="node9" class="node">
<title>8</title>
<path fill="none" stroke="#d87556" stroke-width="2" d="M145,-468C145,-468 56,-468 56,-468 50,-468 44,-462 44,-456 44,-456 44,-444 44,-444 44,-438 50,-432 56,-432 56,-432 145,-432 145,-432 151,-432 157,-438 157,-444 157,-444 157,-456 157,-456 157,-462 151,-468 145,-468"/>
<text text-anchor="middle" x="100.5" y="-447.5" font-family="sans" font-size="10.00">concat_match_sheets</text>
</g>
<!-- 2&#45;&gt;8 -->
<g id="edge12" class="edge">
<title>2&#45;&gt;8</title>
<path fill="none" stroke="grey" stroke-width="2" d="M53.71,-647.19C54.51,-617.05 58.07,-554.36 73.5,-504 75.93,-496.06 79.5,-487.88 83.25,-480.39"/>
<polygon fill="grey" stroke="grey" stroke-width="2" points="86.73,-481.45 88.36,-470.98 80.56,-478.14 86.73,-481.45"/>
</g>
<!-- 10 -->
<g id="node11" class="node">
<title>10</title>
<path fill="none" stroke="#56d863" stroke-width="2" d="M183,-612C183,-612 94,-612 94,-612 88,-612 82,-606 82,-600 82,-600 82,-588 82,-588 82,-582 88,-576 94,-576 94,-576 183,-576 183,-576 189,-576 195,-582 195,-588 195,-588 195,-600 195,-600 195,-606 189,-612 183,-612"/>
<text text-anchor="middle" x="138.5" y="-591.5" font-family="sans" font-size="10.00">scrape_match_sheets</text>
</g>
<!-- 2&#45;&gt;10 -->
<g id="edge15" class="edge">
<title>2&#45;&gt;10</title>
<path fill="none" stroke="grey" stroke-width="2" d="M74.95,-647.34C84.64,-639.36 96.28,-629.77 106.94,-620.99"/>
<polygon fill="grey" stroke="grey" stroke-width="2" points="109.27,-622.96 114.76,-613.9 104.82,-617.56 109.27,-622.96"/>
</g>
<!-- 3 -->
<g id="node4" class="node">
<title>3</title>
<path fill="none" stroke="#61d856" stroke-width="2" d="M81.5,-900C81.5,-900 27.5,-900 27.5,-900 21.5,-900 15.5,-894 15.5,-888 15.5,-888 15.5,-876 15.5,-876 15.5,-870 21.5,-864 27.5,-864 27.5,-864 81.5,-864 81.5,-864 87.5,-864 93.5,-870 93.5,-876 93.5,-876 93.5,-888 93.5,-888 93.5,-894 87.5,-900 81.5,-900"/>
<text text-anchor="middle" x="54.5" y="-879.5" font-family="sans" font-size="10.00">concat_teams</text>
</g>
<!-- 3&#45;&gt;2 -->
<g id="edge6" class="edge">
<title>3&#45;&gt;2</title>
<path fill="none" stroke="grey" stroke-width="2" d="M48.11,-863.11C44.82,-852.96 41.16,-839.93 39.5,-828 37.5,-813.57 38.05,-739.16 40.5,-720 41.45,-712.6 43.04,-704.74 44.79,-697.4"/>
<polygon fill="grey" stroke="grey" stroke-width="2" points="48.9,-697.52 48.02,-686.96 42.12,-695.76 48.9,-697.52"/>
</g>
<!-- 7 -->
<g id="node8" class="node">
<title>7</title>
<path fill="none" stroke="#56a9d8" stroke-width="2" d="M116.5,-828C116.5,-828 60.5,-828 60.5,-828 54.5,-828 48.5,-822 48.5,-816 48.5,-816 48.5,-804 48.5,-804 48.5,-798 54.5,-792 60.5,-792 60.5,-792 116.5,-792 116.5,-792 122.5,-792 128.5,-798 128.5,-804 128.5,-804 128.5,-816 128.5,-816 128.5,-822 122.5,-828 116.5,-828"/>
<text text-anchor="middle" x="88.5" y="-807.5" font-family="sans" font-size="10.00">scrape_games</text>
</g>
<!-- 3&#45;&gt;7 -->
<g id="edge11" class="edge">
<title>3&#45;&gt;7</title>
<path fill="none" stroke="grey" stroke-width="2" d="M63.08,-863.34C66.44,-856.43 70.38,-848.31 74.14,-840.56"/>
<polygon fill="grey" stroke="grey" stroke-width="2" points="77.58,-841.43 78.8,-830.9 71.29,-838.37 77.58,-841.43"/>
</g>
<!-- 4 -->
<g id="node5" class="node">
<title>4</title>
<path fill="none" stroke="#d88d56" stroke-width="2" d="M79,-972C79,-972 30,-972 30,-972 24,-972 18,-966 18,-960 18,-960 18,-948 18,-948 18,-942 24,-936 30,-936 30,-936 79,-936 79,-936 85,-936 91,-942 91,-948 91,-948 91,-960 91,-960 91,-966 85,-972 79,-972"/>
<text text-anchor="middle" x="54.5" y="-951.5" font-family="sans" font-size="10.00">parse_teams</text>
</g>
<!-- 4&#45;&gt;3 -->
<g id="edge8" class="edge">
<title>4&#45;&gt;3</title>
<path fill="none" stroke="grey" stroke-width="2" d="M54.5,-935.34C54.5,-928.75 54.5,-921.08 54.5,-913.67"/>
<polygon fill="grey" stroke="grey" stroke-width="2" points="58,-913.9 54.5,-903.9 51,-913.9 58,-913.9"/>
</g>
<!-- 5 -->
<g id="node6" class="node">
<title>5</title>
<path fill="none" stroke="#80d856" stroke-width="2" d="M81.5,-1044C81.5,-1044 27.5,-1044 27.5,-1044 21.5,-1044 15.5,-1038 15.5,-1032 15.5,-1032 15.5,-1020 15.5,-1020 15.5,-1014 21.5,-1008 27.5,-1008 27.5,-1008 81.5,-1008 81.5,-1008 87.5,-1008 93.5,-1014 93.5,-1020 93.5,-1020 93.5,-1032 93.5,-1032 93.5,-1038 87.5,-1044 81.5,-1044"/>
<text text-anchor="middle" x="54.5" y="-1023.5" font-family="sans" font-size="10.00">scrape_teams</text>
</g>
<!-- 5&#45;&gt;4 -->
<g id="edge9" class="edge">
<title>5&#45;&gt;4</title>
<path fill="none" stroke="grey" stroke-width="2" d="M54.5,-1007.34C54.5,-1000.75 54.5,-993.08 54.5,-985.67"/>
<polygon fill="grey" stroke="grey" stroke-width="2" points="58,-985.9 54.5,-975.9 51,-985.9 58,-985.9"/>
</g>
<!-- 6 -->
<g id="node7" class="node">
<title>6</title>
<path fill="none" stroke="#d8ac56" stroke-width="2" d="M113,-756C113,-756 62,-756 62,-756 56,-756 50,-750 50,-744 50,-744 50,-732 50,-732 50,-726 56,-720 62,-720 62,-720 113,-720 113,-720 119,-720 125,-726 125,-732 125,-732 125,-744 125,-744 125,-750 119,-756 113,-756"/>
<text text-anchor="middle" x="87.5" y="-735.5" font-family="sans" font-size="10.00">parse_games</text>
</g>
<!-- 6&#45;&gt;2 -->
<g id="edge7" class="edge">
<title>6&#45;&gt;2</title>
<path fill="none" stroke="grey" stroke-width="2" d="M78.92,-719.34C75.56,-712.43 71.62,-704.31 67.86,-696.56"/>
<polygon fill="grey" stroke="grey" stroke-width="2" points="70.71,-694.37 63.2,-686.9 64.42,-697.43 70.71,-694.37"/>
</g>
<!-- 7&#45;&gt;6 -->
<g id="edge10" class="edge">
<title>7&#45;&gt;6</title>
<path fill="none" stroke="grey" stroke-width="2" d="M88.25,-791.34C88.15,-784.75 88.04,-777.08 87.94,-769.67"/>
<polygon fill="grey" stroke="grey" stroke-width="2" points="91.4,-769.85 87.76,-759.9 84.4,-769.95 91.4,-769.85"/>
</g>
<!-- 8&#45;&gt;1 -->
<g id="edge4" class="edge">
<title>8&#45;&gt;1</title>
<path fill="none" stroke="grey" stroke-width="2" d="M90.96,-431.19C77.75,-404.84 55.5,-353.55 55.5,-307 55.5,-307 55.5,-307 55.5,-233 55.5,-194.65 55.5,-150.48 55.5,-121.72"/>
<polygon fill="grey" stroke="grey" stroke-width="2" points="59,-121.93 55.5,-111.93 52,-121.93 59,-121.93"/>
</g>
<!-- 12 -->
<g id="node13" class="node">
<title>12</title>
<path fill="none" stroke="#97d856" stroke-width="2" d="M187,-252C187,-252 120,-252 120,-252 114,-252 108,-246 108,-240 108,-240 108,-228 108,-228 108,-222 114,-216 120,-216 120,-216 187,-216 187,-216 193,-216 199,-222 199,-228 199,-228 199,-240 199,-240 199,-246 193,-252 187,-252"/>
<text text-anchor="middle" x="153.5" y="-231.5" font-family="sans" font-size="10.00">concat_stadiums</text>
</g>
<!-- 8&#45;&gt;12 -->
<g id="edge17" class="edge">
<title>8&#45;&gt;12</title>
<path fill="none" stroke="grey" stroke-width="2" d="M99.62,-431.46C98.68,-401.19 99.33,-337.62 117.5,-288 120.63,-279.44 125.45,-270.93 130.55,-263.31"/>
<polygon fill="grey" stroke="grey" stroke-width="2" points="134.06,-265.05 137.07,-254.89 128.38,-260.95 134.06,-265.05"/>
</g>
<!-- 14 -->
<g id="node15" class="node">
<title>14</title>
<path fill="none" stroke="#b6d856" stroke-width="2" d="M205,-396C205,-396 138,-396 138,-396 132,-396 126,-390 126,-384 126,-384 126,-372 126,-372 126,-366 132,-360 138,-360 138,-360 205,-360 205,-360 211,-360 217,-366 217,-372 217,-372 217,-384 217,-384 217,-390 211,-396 205,-396"/>
<text text-anchor="middle" x="171.5" y="-375.5" font-family="sans" font-size="10.00">scrape_stadiums</text>
</g>
<!-- 8&#45;&gt;14 -->
<g id="edge20" class="edge">
<title>8&#45;&gt;14</title>
<path fill="none" stroke="grey" stroke-width="2" d="M118.42,-431.34C126.26,-423.6 135.64,-414.36 144.31,-405.81"/>
<polygon fill="grey" stroke="grey" stroke-width="2" points="146.68,-408.41 151.34,-398.9 141.76,-403.43 146.68,-408.41"/>
</g>
<!-- 9 -->
<g id="node10" class="node">
<title>9</title>
<path fill="none" stroke="#d8c356" stroke-width="2" d="M178,-540C178,-540 95,-540 95,-540 89,-540 83,-534 83,-528 83,-528 83,-516 83,-516 83,-510 89,-504 95,-504 95,-504 178,-504 178,-504 184,-504 190,-510 190,-516 190,-516 190,-528 190,-528 190,-534 184,-540 178,-540"/>
<text text-anchor="middle" x="136.5" y="-519.5" font-family="sans" font-size="10.00">parse_match_sheets</text>
</g>
<!-- 9&#45;&gt;8 -->
<g id="edge13" class="edge">
<title>9&#45;&gt;8</title>
<path fill="none" stroke="grey" stroke-width="2" d="M127.42,-503.34C123.82,-496.34 119.59,-488.12 115.56,-480.28"/>
<polygon fill="grey" stroke="grey" stroke-width="2" points="118.39,-478.19 110.71,-470.9 112.17,-481.4 118.39,-478.19"/>
</g>
<!-- 10&#45;&gt;9 -->
<g id="edge14" class="edge">
<title>10&#45;&gt;9</title>
<path fill="none" stroke="grey" stroke-width="2" d="M138,-575.34C137.81,-568.75 137.59,-561.08 137.38,-553.67"/>
<polygon fill="grey" stroke="grey" stroke-width="2" points="140.8,-553.8 137.01,-543.9 133.8,-554 140.8,-553.8"/>
</g>
<!-- 11 -->
<g id="node12" class="node">
<title>11</title>
<path fill="none" stroke="#d85656" stroke-width="2" d="M211.5,-180C211.5,-180 95.5,-180 95.5,-180 89.5,-180 83.5,-174 83.5,-168 83.5,-168 83.5,-156 83.5,-156 83.5,-150 89.5,-144 95.5,-144 95.5,-144 211.5,-144 211.5,-144 217.5,-144 223.5,-150 223.5,-156 223.5,-156 223.5,-168 223.5,-168 223.5,-174 217.5,-180 211.5,-180"/>
<text text-anchor="middle" x="153.5" y="-159.5" font-family="sans" font-size="10.00">fill_missing_stadium_coords</text>
</g>
<!-- 11&#45;&gt;1 -->
<g id="edge5" class="edge">
<title>11&#45;&gt;1</title>
<path fill="none" stroke="grey" stroke-width="2" d="M128.52,-143.15C117.11,-135.01 103.4,-125.22 90.96,-116.33"/>
<polygon fill="grey" stroke="grey" stroke-width="2" points="92.61,-112.78 82.44,-109.81 88.54,-118.47 92.61,-112.78"/>
</g>
<!-- 12&#45;&gt;11 -->
<g id="edge16" class="edge">
<title>12&#45;&gt;11</title>
<path fill="none" stroke="grey" stroke-width="2" d="M153.5,-215.34C153.5,-208.75 153.5,-201.08 153.5,-193.67"/>
<polygon fill="grey" stroke="grey" stroke-width="2" points="157,-193.9 153.5,-183.9 150,-193.9 157,-193.9"/>
</g>
<!-- 13 -->
<g id="node14" class="node">
<title>13</title>
<path fill="none" stroke="#56c1d8" stroke-width="2" d="M200.5,-324C200.5,-324 138.5,-324 138.5,-324 132.5,-324 126.5,-318 126.5,-312 126.5,-312 126.5,-300 126.5,-300 126.5,-294 132.5,-288 138.5,-288 138.5,-288 200.5,-288 200.5,-288 206.5,-288 212.5,-294 212.5,-300 212.5,-300 212.5,-312 212.5,-312 212.5,-318 206.5,-324 200.5,-324"/>
<text text-anchor="middle" x="169.5" y="-303.5" font-family="sans" font-size="10.00">parse_stadiums</text>
</g>
<!-- 13&#45;&gt;12 -->
<g id="edge18" class="edge">
<title>13&#45;&gt;12</title>
<path fill="none" stroke="grey" stroke-width="2" d="M165.46,-287.34C163.94,-280.67 162.16,-272.89 160.45,-265.39"/>
<polygon fill="grey" stroke="grey" stroke-width="2" points="163.23,-263.87 157.59,-254.9 156.41,-265.43 163.23,-263.87"/>
</g>
<!-- 14&#45;&gt;13 -->
<g id="edge19" class="edge">
<title>14&#45;&gt;13</title>
<path fill="none" stroke="grey" stroke-width="2" d="M171,-359.34C170.81,-352.75 170.59,-345.08 170.38,-337.67"/>
<polygon fill="grey" stroke="grey" stroke-width="2" points="173.8,-337.8 170.01,-327.9 166.8,-338 173.8,-337.8"/>
</g>
<!-- 15 -->
<g id="node16" class="node">
<title>15</title>
<path fill="none" stroke="#5673d8" stroke-width="2" d="M173.5,-108C173.5,-108 141.5,-108 141.5,-108 135.5,-108 129.5,-102 129.5,-96 129.5,-96 129.5,-84 129.5,-84 129.5,-78 135.5,-72 141.5,-72 141.5,-72 173.5,-72 173.5,-72 179.5,-72 185.5,-78 185.5,-84 185.5,-84 185.5,-96 185.5,-96 185.5,-102 179.5,-108 173.5,-108"/>
<text text-anchor="middle" x="157.5" y="-87.5" font-family="sans" font-size="10.00">rulegraph</text>
</g>
<!-- 15&#45;&gt;0 -->
<g id="edge2" class="edge">
<title>15&#45;&gt;0</title>
<path fill="none" stroke="grey" stroke-width="2" d="M144.63,-71.34C139.3,-64.01 132.97,-55.34 127.03,-47.18"/>
<polygon fill="grey" stroke="grey" stroke-width="2" points="129.26,-44.92 120.54,-38.9 123.6,-49.05 129.26,-44.92"/>
</g>
</g>
</svg>
