<?xml version="1.0" encoding="UTF-8" standalone="no"?>
<!DOCTYPE svg PUBLIC "-//W3C//DTD SVG 1.1//EN"
 "http://www.w3.org/Graphics/SVG/1.1/DTD/svg11.dtd">
<!-- Generated by graphviz version 8.0.3 (20230416.2022)
 -->
<!-- Title: snakemake_dag Pages: 1 -->
<svg width="201pt" height="764pt"
 viewBox="0.00 0.00 201.00 764.00" xmlns="http://www.w3.org/2000/svg" xmlns:xlink="http://www.w3.org/1999/xlink">
<g id="graph0" class="graph" transform="scale(1 1) rotate(0) translate(4 760)">
<title>snakemake_dag</title>
<polygon fill="white" stroke="none" points="-4,4 -4,-760 197,-760 197,4 -4,4"/>
<!-- 0 -->
<g id="node1" class="node">
<title>0</title>
<path fill="none" stroke="#d8ac56" stroke-width="2" d="M121.5,-36C121.5,-36 91.5,-36 91.5,-36 85.5,-36 79.5,-30 79.5,-24 79.5,-24 79.5,-12 79.5,-12 79.5,-6 85.5,0 91.5,0 91.5,0 121.5,0 121.5,0 127.5,0 133.5,-6 133.5,-12 133.5,-12 133.5,-24 133.5,-24 133.5,-30 127.5,-36 121.5,-36"/>
<text text-anchor="middle" x="106.5" y="-15.5" font-family="sans" font-size="10.00">all</text>
</g>
<!-- 1 -->
<g id="node2" class="node">
<title>1</title>
<path fill="none" stroke="#56d89a" stroke-width="2" d="M99,-108C99,-108 12,-108 12,-108 6,-108 0,-102 0,-96 0,-96 0,-84 0,-84 0,-78 6,-72 12,-72 12,-72 99,-72 99,-72 105,-72 111,-78 111,-84 111,-84 111,-96 111,-96 111,-102 105,-108 99,-108"/>
<text text-anchor="middle" x="55.5" y="-87.5" font-family="sans" font-size="10.00">join_games_stadiums</text>
</g>
<!-- 1&#45;&gt;0 -->
<g id="edge2" class="edge">
<title>1&#45;&gt;0</title>
<path fill="none" stroke="grey" stroke-width="2" d="M68.37,-71.34C73.7,-64.01 80.03,-55.34 85.97,-47.18"/>
<polygon fill="grey" stroke="grey" stroke-width="2" points="89.4,-49.05 92.46,-38.9 83.74,-44.92 89.4,-49.05"/>
</g>
<!-- 2 -->
<g id="node3" class="node">
<title>2</title>
<path fill="none" stroke="#d8c356" stroke-width="2" d="M79.5,-396C79.5,-396 23.5,-396 23.5,-396 17.5,-396 11.5,-390 11.5,-384 11.5,-384 11.5,-372 11.5,-372 11.5,-366 17.5,-360 23.5,-360 23.5,-360 79.5,-360 79.5,-360 85.5,-360 91.5,-366 91.5,-372 91.5,-372 91.5,-384 91.5,-384 91.5,-390 85.5,-396 79.5,-396"/>
<text text-anchor="middle" x="51.5" y="-375.5" font-family="sans" font-size="10.00">concat_games</text>
</g>
<!-- 2&#45;&gt;1 -->
<g id="edge3" class="edge">
<title>2&#45;&gt;1</title>
<path fill="none" stroke="grey" stroke-width="2" d="M46.65,-359.25C36.67,-320.01 16.08,-223.08 32.5,-144 34.17,-135.98 37.11,-127.68 40.35,-120.09"/>
<polygon fill="grey" stroke="grey" stroke-width="2" points="43.67,-121.09 44.72,-110.55 37.33,-118.14 43.67,-121.09"/>
</g>
<!-- 8 -->
<g id="node9" class="node">
<title>8</title>
<path fill="none" stroke="#56d863" stroke-width="2" d="M143,-180C143,-180 54,-180 54,-180 48,-180 42,-174 42,-168 42,-168 42,-156 42,-156 42,-150 48,-144 54,-144 54,-144 143,-144 143,-144 149,-144 155,-150 155,-156 155,-156 155,-168 155,-168 155,-174 149,-180 143,-180"/>
<text text-anchor="middle" x="98.5" y="-159.5" font-family="sans" font-size="10.00">concat_match_sheets</text>
</g>
<!-- 2&#45;&gt;8 -->
<g id="edge11" class="edge">
<title>2&#45;&gt;8</title>
<path fill="none" stroke="grey" stroke-width="2" d="M51.71,-359.19C52.51,-329.05 56.07,-266.36 71.5,-216 73.93,-208.06 77.5,-199.88 81.25,-192.39"/>
<polygon fill="grey" stroke="grey" stroke-width="2" points="84.73,-193.45 86.36,-182.98 78.56,-190.14 84.73,-193.45"/>
</g>
<!-- 10 -->
<g id="node11" class="node">
<title>10</title>
<path fill="none" stroke="#d85656" stroke-width="2" d="M181,-324C181,-324 92,-324 92,-324 86,-324 80,-318 80,-312 80,-312 80,-300 80,-300 80,-294 86,-288 92,-288 92,-288 181,-288 181,-288 187,-288 193,-294 193,-300 193,-300 193,-312 193,-312 193,-318 187,-324 181,-324"/>
<text text-anchor="middle" x="136.5" y="-303.5" font-family="sans" font-size="10.00">scrape_match_sheets</text>
</g>
<!-- 2&#45;&gt;10 -->
<g id="edge14" class="edge">
<title>2&#45;&gt;10</title>
<path fill="none" stroke="grey" stroke-width="2" d="M72.95,-359.34C82.64,-351.36 94.28,-341.77 104.94,-332.99"/>
<polygon fill="grey" stroke="grey" stroke-width="2" points="107.27,-334.96 112.76,-325.9 102.82,-329.56 107.27,-334.96"/>
</g>
<!-- 3 -->
<g id="node4" class="node">
<title>3</title>
<path fill="none" stroke="#d87556" stroke-width="2" d="M79.5,-612C79.5,-612 25.5,-612 25.5,-612 19.5,-612 13.5,-606 13.5,-600 13.5,-600 13.5,-588 13.5,-588 13.5,-582 19.5,-576 25.5,-576 25.5,-576 79.5,-576 79.5,-576 85.5,-576 91.5,-582 91.5,-588 91.5,-588 91.5,-600 91.5,-600 91.5,-606 85.5,-612 79.5,-612"/>
<text text-anchor="middle" x="52.5" y="-591.5" font-family="sans" font-size="10.00">concat_teams</text>
</g>
<!-- 3&#45;&gt;2 -->
<g id="edge5" class="edge">
<title>3&#45;&gt;2</title>
<path fill="none" stroke="grey" stroke-width="2" d="M46.11,-575.11C42.82,-564.96 39.16,-551.93 37.5,-540 35.5,-525.57 36.05,-451.16 38.5,-432 39.45,-424.6 41.04,-416.74 42.79,-409.4"/>
<polygon fill="grey" stroke="grey" stroke-width="2" points="46.9,-409.52 46.02,-398.96 40.12,-407.76 46.9,-409.52"/>
</g>
<!-- 7 -->
<g id="node8" class="node">
<title>7</title>
<path fill="none" stroke="#56d8d0" stroke-width="2" d="M114.5,-540C114.5,-540 58.5,-540 58.5,-540 52.5,-540 46.5,-534 46.5,-528 46.5,-528 46.5,-516 46.5,-516 46.5,-510 52.5,-504 58.5,-504 58.5,-504 114.5,-504 114.5,-504 120.5,-504 126.5,-510 126.5,-516 126.5,-516 126.5,-528 126.5,-528 126.5,-534 120.5,-540 114.5,-540"/>
<text text-anchor="middle" x="86.5" y="-519.5" font-family="sans" font-size="10.00">scrape_games</text>
</g>
<!-- 3&#45;&gt;7 -->
<g id="edge10" class="edge">
<title>3&#45;&gt;7</title>
<path fill="none" stroke="grey" stroke-width="2" d="M61.08,-575.34C64.44,-568.43 68.38,-560.31 72.14,-552.56"/>
<polygon fill="grey" stroke="grey" stroke-width="2" points="75.58,-553.43 76.8,-542.9 69.29,-550.37 75.58,-553.43"/>
</g>
<!-- 4 -->
<g id="node5" class="node">
<title>4</title>
<path fill="none" stroke="#568ad8" stroke-width="2" d="M77,-684C77,-684 28,-684 28,-684 22,-684 16,-678 16,-672 16,-672 16,-660 16,-660 16,-654 22,-648 28,-648 28,-648 77,-648 77,-648 83,-648 89,-654 89,-660 89,-660 89,-672 89,-672 89,-678 83,-684 77,-684"/>
<text text-anchor="middle" x="52.5" y="-663.5" font-family="sans" font-size="10.00">parse_teams</text>
</g>
<!-- 4&#45;&gt;3 -->
<g id="edge7" class="edge">
<title>4&#45;&gt;3</title>
<path fill="none" stroke="grey" stroke-width="2" d="M52.5,-647.34C52.5,-640.75 52.5,-633.08 52.5,-625.67"/>
<polygon fill="grey" stroke="grey" stroke-width="2" points="56,-625.9 52.5,-615.9 49,-625.9 56,-625.9"/>
</g>
<!-- 5 -->
<g id="node6" class="node">
<title>5</title>
<path fill="none" stroke="#80d856" stroke-width="2" d="M79.5,-756C79.5,-756 25.5,-756 25.5,-756 19.5,-756 13.5,-750 13.5,-744 13.5,-744 13.5,-732 13.5,-732 13.5,-726 19.5,-720 25.5,-720 25.5,-720 79.5,-720 79.5,-720 85.5,-720 91.5,-726 91.5,-732 91.5,-732 91.5,-744 91.5,-744 91.5,-750 85.5,-756 79.5,-756"/>
<text text-anchor="middle" x="52.5" y="-735.5" font-family="sans" font-size="10.00">scrape_teams</text>
</g>
<!-- 5&#45;&gt;4 -->
<g id="edge8" class="edge">
<title>5&#45;&gt;4</title>
<path fill="none" stroke="grey" stroke-width="2" d="M52.5,-719.34C52.5,-712.75 52.5,-705.08 52.5,-697.67"/>
<polygon fill="grey" stroke="grey" stroke-width="2" points="56,-697.9 52.5,-687.9 49,-697.9 56,-697.9"/>
</g>
<!-- 6 -->
<g id="node7" class="node">
<title>6</title>
<path fill="none" stroke="#56d882" stroke-width="2" d="M111,-468C111,-468 60,-468 60,-468 54,-468 48,-462 48,-456 48,-456 48,-444 48,-444 48,-438 54,-432 60,-432 60,-432 111,-432 111,-432 117,-432 123,-438 123,-444 123,-444 123,-456 123,-456 123,-462 117,-468 111,-468"/>
<text text-anchor="middle" x="85.5" y="-447.5" font-family="sans" font-size="10.00">parse_games</text>
</g>
<!-- 6&#45;&gt;2 -->
<g id="edge6" class="edge">
<title>6&#45;&gt;2</title>
<path fill="none" stroke="grey" stroke-width="2" d="M76.92,-431.34C73.56,-424.43 69.62,-416.31 65.86,-408.56"/>
<polygon fill="grey" stroke="grey" stroke-width="2" points="68.71,-406.37 61.2,-398.9 62.42,-409.43 68.71,-406.37"/>
</g>
<!-- 7&#45;&gt;6 -->
<g id="edge9" class="edge">
<title>7&#45;&gt;6</title>
<path fill="none" stroke="grey" stroke-width="2" d="M86.25,-503.34C86.15,-496.75 86.04,-489.08 85.94,-481.67"/>
<polygon fill="grey" stroke="grey" stroke-width="2" points="89.4,-481.85 85.76,-471.9 82.4,-481.95 89.4,-481.85"/>
</g>
<!-- 8&#45;&gt;1 -->
<g id="edge4" class="edge">
<title>8&#45;&gt;1</title>
<path fill="none" stroke="grey" stroke-width="2" d="M87.65,-143.34C83.25,-136.18 78.06,-127.73 73.15,-119.73"/>
<polygon fill="grey" stroke="grey" stroke-width="2" points="75.71,-117.59 67.5,-110.9 69.75,-121.25 75.71,-117.59"/>
</g>
<!-- 9 -->
<g id="node10" class="node">
<title>9</title>
<path fill="none" stroke="#d88d56" stroke-width="2" d="M176,-252C176,-252 93,-252 93,-252 87,-252 81,-246 81,-240 81,-240 81,-228 81,-228 81,-222 87,-216 93,-216 93,-216 176,-216 176,-216 182,-216 188,-222 188,-228 188,-228 188,-240 188,-240 188,-246 182,-252 176,-252"/>
<text text-anchor="middle" x="134.5" y="-231.5" font-family="sans" font-size="10.00">parse_match_sheets</text>
</g>
<!-- 9&#45;&gt;8 -->
<g id="edge12" class="edge">
<title>9&#45;&gt;8</title>
<path fill="none" stroke="grey" stroke-width="2" d="M125.42,-215.34C121.82,-208.34 117.59,-200.12 113.56,-192.28"/>
<polygon fill="grey" stroke="grey" stroke-width="2" points="116.39,-190.19 108.71,-182.9 110.17,-193.4 116.39,-190.19"/>
</g>
<!-- 10&#45;&gt;9 -->
<g id="edge13" class="edge">
<title>10&#45;&gt;9</title>
<path fill="none" stroke="grey" stroke-width="2" d="M136,-287.34C135.81,-280.75 135.59,-273.08 135.38,-265.67"/>
<polygon fill="grey" stroke="grey" stroke-width="2" points="138.8,-265.8 135.01,-255.9 131.8,-266 138.8,-265.8"/>
</g>
<!-- 11 -->
<g id="node12" class="node">
<title>11</title>
<path fill="none" stroke="#b6d856" stroke-width="2" d="M173.5,-108C173.5,-108 141.5,-108 141.5,-108 135.5,-108 129.5,-102 129.5,-96 129.5,-96 129.5,-84 129.5,-84 129.5,-78 135.5,-72 141.5,-72 141.5,-72 173.5,-72 173.5,-72 179.5,-72 185.5,-78 185.5,-84 185.5,-84 185.5,-96 185.5,-96 185.5,-102 179.5,-108 173.5,-108"/>
<text text-anchor="middle" x="157.5" y="-87.5" font-family="sans" font-size="10.00">rulegraph</text>
</g>
<!-- 11&#45;&gt;0 -->
<g id="edge1" class="edge">
<title>11&#45;&gt;0</title>
<path fill="none" stroke="grey" stroke-width="2" d="M144.63,-71.34C139.3,-64.01 132.97,-55.34 127.03,-47.18"/>
<polygon fill="grey" stroke="grey" stroke-width="2" points="129.26,-44.92 120.54,-38.9 123.6,-49.05 129.26,-44.92"/>
</g>
</g>
</svg>
