<?xml version="1.0" encoding="UTF-8" standalone="no"?>
<!DOCTYPE svg PUBLIC "-//W3C//DTD SVG 1.1//EN"
 "http://www.w3.org/Graphics/SVG/1.1/DTD/svg11.dtd">
<!-- Generated by graphviz version 8.0.3 (20230416.2022)
 -->
<!-- Title: snakemake_dag Pages: 1 -->
<svg width="194pt" height="764pt"
 viewBox="0.00 0.00 193.50 764.00" xmlns="http://www.w3.org/2000/svg" xmlns:xlink="http://www.w3.org/1999/xlink">
<g id="graph0" class="graph" transform="scale(1 1) rotate(0) translate(4 760)">
<title>snakemake_dag</title>
<polygon fill="white" stroke="none" points="-4,4 -4,-760 189.5,-760 189.5,4 -4,4"/>
<!-- 0 -->
<g id="node1" class="node">
<title>0</title>
<path fill="none" stroke="#d8c356" stroke-width="2" d="M121.5,-36C121.5,-36 91.5,-36 91.5,-36 85.5,-36 79.5,-30 79.5,-24 79.5,-24 79.5,-12 79.5,-12 79.5,-6 85.5,0 91.5,0 91.5,0 121.5,0 121.5,0 127.5,0 133.5,-6 133.5,-12 133.5,-12 133.5,-24 133.5,-24 133.5,-30 127.5,-36 121.5,-36"/>
<text text-anchor="middle" x="106.5" y="-15.5" font-family="sans" font-size="10.00">all</text>
</g>
<!-- 1 -->
<g id="node2" class="node">
<title>1</title>
<path fill="none" stroke="#d8ac56" stroke-width="2" d="M99,-108C99,-108 12,-108 12,-108 6,-108 0,-102 0,-96 0,-96 0,-84 0,-84 0,-78 6,-72 12,-72 12,-72 99,-72 99,-72 105,-72 111,-78 111,-84 111,-84 111,-96 111,-96 111,-102 105,-108 99,-108"/>
<text text-anchor="middle" x="55.5" y="-87.5" font-family="sans" font-size="10.00">join_games_stadiums</text>
</g>
<!-- 1&#45;&gt;0 -->
<g id="edge2" class="edge">
<title>1&#45;&gt;0</title>
<path fill="none" stroke="grey" stroke-width="2" d="M68.37,-71.34C73.7,-64.01 80.03,-55.34 85.97,-47.18"/>
<polygon fill="grey" stroke="grey" stroke-width="2" points="89.4,-49.05 92.46,-38.9 83.74,-44.92 89.4,-49.05"/>
</g>
<!-- 2 -->
<g id="node3" class="node">
<title>2</title>
<path fill="none" stroke="#56d89a" stroke-width="2" d="M83.5,-396C83.5,-396 27.5,-396 27.5,-396 21.5,-396 15.5,-390 15.5,-384 15.5,-384 15.5,-372 15.5,-372 15.5,-366 21.5,-360 27.5,-360 27.5,-360 83.5,-360 83.5,-360 89.5,-360 95.5,-366 95.5,-372 95.5,-372 95.5,-384 95.5,-384 95.5,-390 89.5,-396 83.5,-396"/>
<text text-anchor="middle" x="55.5" y="-375.5" font-family="sans" font-size="10.00">concat_games</text>
</g>
<!-- 2&#45;&gt;1 -->
<g id="edge3" class="edge">
<title>2&#45;&gt;1</title>
<path fill="none" stroke="grey" stroke-width="2" d="M45.72,-359.45C40.68,-349.41 35.07,-336.37 32.5,-324 16.24,-245.67 16.24,-222.33 32.5,-144 34.17,-135.98 37.11,-127.68 40.35,-120.09"/>
<polygon fill="grey" stroke="grey" stroke-width="2" points="43.67,-121.09 44.72,-110.55 37.33,-118.14 43.67,-121.09"/>
</g>
<!-- 10 -->
<g id="node11" class="node">
<title>10</title>
<path fill="none" stroke="#ced856" stroke-width="2" d="M143,-324C143,-324 54,-324 54,-324 48,-324 42,-318 42,-312 42,-312 42,-300 42,-300 42,-294 48,-288 54,-288 54,-288 143,-288 143,-288 149,-288 155,-294 155,-300 155,-300 155,-312 155,-312 155,-318 149,-324 143,-324"/>
<text text-anchor="middle" x="98.5" y="-303.5" font-family="sans" font-size="10.00">scrape_match_sheets</text>
</g>
<!-- 2&#45;&gt;10 -->
<g id="edge13" class="edge">
<title>2&#45;&gt;10</title>
<path fill="none" stroke="grey" stroke-width="2" d="M66.35,-359.34C70.75,-352.18 75.94,-343.73 80.85,-335.73"/>
<polygon fill="grey" stroke="grey" stroke-width="2" points="84.25,-337.25 86.5,-326.9 78.29,-333.59 84.25,-337.25"/>
</g>
<!-- 3 -->
<g id="node4" class="node">
<title>3</title>
<path fill="none" stroke="#56d863" stroke-width="2" d="M83.5,-612C83.5,-612 29.5,-612 29.5,-612 23.5,-612 17.5,-606 17.5,-600 17.5,-600 17.5,-588 17.5,-588 17.5,-582 23.5,-576 29.5,-576 29.5,-576 83.5,-576 83.5,-576 89.5,-576 95.5,-582 95.5,-588 95.5,-588 95.5,-600 95.5,-600 95.5,-606 89.5,-612 83.5,-612"/>
<text text-anchor="middle" x="56.5" y="-591.5" font-family="sans" font-size="10.00">concat_teams</text>
</g>
<!-- 3&#45;&gt;2 -->
<g id="edge6" class="edge">
<title>3&#45;&gt;2</title>
<path fill="none" stroke="grey" stroke-width="2" d="M50.11,-575.11C46.82,-564.96 43.16,-551.93 41.5,-540 39.5,-525.57 40.05,-451.16 42.5,-432 43.45,-424.6 45.04,-416.74 46.79,-409.4"/>
<polygon fill="grey" stroke="grey" stroke-width="2" points="50.9,-409.52 50.02,-398.96 44.12,-407.76 50.9,-409.52"/>
</g>
<!-- 7 -->
<g id="node8" class="node">
<title>7</title>
<path fill="none" stroke="#b6d856" stroke-width="2" d="M118.5,-540C118.5,-540 62.5,-540 62.5,-540 56.5,-540 50.5,-534 50.5,-528 50.5,-528 50.5,-516 50.5,-516 50.5,-510 56.5,-504 62.5,-504 62.5,-504 118.5,-504 118.5,-504 124.5,-504 130.5,-510 130.5,-516 130.5,-516 130.5,-528 130.5,-528 130.5,-534 124.5,-540 118.5,-540"/>
<text text-anchor="middle" x="90.5" y="-519.5" font-family="sans" font-size="10.00">scrape_games</text>
</g>
<!-- 3&#45;&gt;7 -->
<g id="edge10" class="edge">
<title>3&#45;&gt;7</title>
<path fill="none" stroke="grey" stroke-width="2" d="M65.08,-575.34C68.44,-568.43 72.38,-560.31 76.14,-552.56"/>
<polygon fill="grey" stroke="grey" stroke-width="2" points="79.58,-553.43 80.8,-542.9 73.29,-550.37 79.58,-553.43"/>
</g>
<!-- 4 -->
<g id="node5" class="node">
<title>4</title>
<path fill="none" stroke="#d88d56" stroke-width="2" d="M81,-684C81,-684 32,-684 32,-684 26,-684 20,-678 20,-672 20,-672 20,-660 20,-660 20,-654 26,-648 32,-648 32,-648 81,-648 81,-648 87,-648 93,-654 93,-660 93,-660 93,-672 93,-672 93,-678 87,-684 81,-684"/>
<text text-anchor="middle" x="56.5" y="-663.5" font-family="sans" font-size="10.00">parse_teams</text>
</g>
<!-- 4&#45;&gt;3 -->
<g id="edge7" class="edge">
<title>4&#45;&gt;3</title>
<path fill="none" stroke="grey" stroke-width="2" d="M56.5,-647.34C56.5,-640.75 56.5,-633.08 56.5,-625.67"/>
<polygon fill="grey" stroke="grey" stroke-width="2" points="60,-625.9 56.5,-615.9 53,-625.9 60,-625.9"/>
</g>
<!-- 5 -->
<g id="node6" class="node">
<title>5</title>
<path fill="none" stroke="#56c1d8" stroke-width="2" d="M83.5,-756C83.5,-756 29.5,-756 29.5,-756 23.5,-756 17.5,-750 17.5,-744 17.5,-744 17.5,-732 17.5,-732 17.5,-726 23.5,-720 29.5,-720 29.5,-720 83.5,-720 83.5,-720 89.5,-720 95.5,-726 95.5,-732 95.5,-732 95.5,-744 95.5,-744 95.5,-750 89.5,-756 83.5,-756"/>
<text text-anchor="middle" x="56.5" y="-735.5" font-family="sans" font-size="10.00">scrape_teams</text>
</g>
<!-- 5&#45;&gt;4 -->
<g id="edge8" class="edge">
<title>5&#45;&gt;4</title>
<path fill="none" stroke="grey" stroke-width="2" d="M56.5,-719.34C56.5,-712.75 56.5,-705.08 56.5,-697.67"/>
<polygon fill="grey" stroke="grey" stroke-width="2" points="60,-697.9 56.5,-687.9 53,-697.9 60,-697.9"/>
</g>
<!-- 6 -->
<g id="node7" class="node">
<title>6</title>
<path fill="none" stroke="#d85656" stroke-width="2" d="M115,-468C115,-468 64,-468 64,-468 58,-468 52,-462 52,-456 52,-456 52,-444 52,-444 52,-438 58,-432 64,-432 64,-432 115,-432 115,-432 121,-432 127,-438 127,-444 127,-444 127,-456 127,-456 127,-462 121,-468 115,-468"/>
<text text-anchor="middle" x="89.5" y="-447.5" font-family="sans" font-size="10.00">parse_games</text>
</g>
<!-- 6&#45;&gt;2 -->
<g id="edge5" class="edge">
<title>6&#45;&gt;2</title>
<path fill="none" stroke="grey" stroke-width="2" d="M80.92,-431.34C77.56,-424.43 73.62,-416.31 69.86,-408.56"/>
<polygon fill="grey" stroke="grey" stroke-width="2" points="72.71,-406.37 65.2,-398.9 66.42,-409.43 72.71,-406.37"/>
</g>
<!-- 7&#45;&gt;6 -->
<g id="edge9" class="edge">
<title>7&#45;&gt;6</title>
<path fill="none" stroke="grey" stroke-width="2" d="M90.25,-503.34C90.15,-496.75 90.04,-489.08 89.94,-481.67"/>
<polygon fill="grey" stroke="grey" stroke-width="2" points="93.4,-481.85 89.76,-471.9 86.4,-481.95 93.4,-481.85"/>
</g>
<!-- 8 -->
<g id="node9" class="node">
<title>8</title>
<path fill="none" stroke="#568ad8" stroke-width="2" d="M143,-180C143,-180 54,-180 54,-180 48,-180 42,-174 42,-168 42,-168 42,-156 42,-156 42,-150 48,-144 54,-144 54,-144 143,-144 143,-144 149,-144 155,-150 155,-156 155,-156 155,-168 155,-168 155,-174 149,-180 143,-180"/>
<text text-anchor="middle" x="98.5" y="-159.5" font-family="sans" font-size="10.00">concat_match_sheets</text>
</g>
<!-- 8&#45;&gt;1 -->
<g id="edge4" class="edge">
<title>8&#45;&gt;1</title>
<path fill="none" stroke="grey" stroke-width="2" d="M87.65,-143.34C83.25,-136.18 78.06,-127.73 73.15,-119.73"/>
<polygon fill="grey" stroke="grey" stroke-width="2" points="75.71,-117.59 67.5,-110.9 69.75,-121.25 75.71,-117.59"/>
</g>
<!-- 9 -->
<g id="node10" class="node">
<title>9</title>
<path fill="none" stroke="#d87556" stroke-width="2" d="M140,-252C140,-252 57,-252 57,-252 51,-252 45,-246 45,-240 45,-240 45,-228 45,-228 45,-222 51,-216 57,-216 57,-216 140,-216 140,-216 146,-216 152,-222 152,-228 152,-228 152,-240 152,-240 152,-246 146,-252 140,-252"/>
<text text-anchor="middle" x="98.5" y="-231.5" font-family="sans" font-size="10.00">parse_match_sheets</text>
</g>
<!-- 9&#45;&gt;8 -->
<g id="edge11" class="edge">
<title>9&#45;&gt;8</title>
<path fill="none" stroke="grey" stroke-width="2" d="M98.5,-215.34C98.5,-208.75 98.5,-201.08 98.5,-193.67"/>
<polygon fill="grey" stroke="grey" stroke-width="2" points="102,-193.9 98.5,-183.9 95,-193.9 102,-193.9"/>
</g>
<!-- 10&#45;&gt;9 -->
<g id="edge12" class="edge">
<title>10&#45;&gt;9</title>
<path fill="none" stroke="grey" stroke-width="2" d="M98.5,-287.34C98.5,-280.75 98.5,-273.08 98.5,-265.67"/>
<polygon fill="grey" stroke="grey" stroke-width="2" points="102,-265.9 98.5,-255.9 95,-265.9 102,-265.9"/>
</g>
<!-- 11 -->
<g id="node12" class="node">
<title>11</title>
<path fill="none" stroke="#56a9d8" stroke-width="2" d="M173.5,-108C173.5,-108 141.5,-108 141.5,-108 135.5,-108 129.5,-102 129.5,-96 129.5,-96 129.5,-84 129.5,-84 129.5,-78 135.5,-72 141.5,-72 141.5,-72 173.5,-72 173.5,-72 179.5,-72 185.5,-78 185.5,-84 185.5,-84 185.5,-96 185.5,-96 185.5,-102 179.5,-108 173.5,-108"/>
<text text-anchor="middle" x="157.5" y="-87.5" font-family="sans" font-size="10.00">rulegraph</text>
</g>
<!-- 11&#45;&gt;0 -->
<g id="edge1" class="edge">
<title>11&#45;&gt;0</title>
<path fill="none" stroke="grey" stroke-width="2" d="M144.63,-71.34C139.3,-64.01 132.97,-55.34 127.03,-47.18"/>
<polygon fill="grey" stroke="grey" stroke-width="2" points="129.26,-44.92 120.54,-38.9 123.6,-49.05 129.26,-44.92"/>
</g>
</g>
</svg>
