<?xml version="1.0" encoding="UTF-8" standalone="no"?>
<!DOCTYPE svg PUBLIC "-//W3C//DTD SVG 1.1//EN"
 "http://www.w3.org/Graphics/SVG/1.1/DTD/svg11.dtd">
<!-- Generated by graphviz version 8.0.3 (20230416.2022)
 -->
<!-- Title: snakemake_dag Pages: 1 -->
<svg width="324pt" height="1052pt"
 viewBox="0.00 0.00 323.50 1052.00" xmlns="http://www.w3.org/2000/svg" xmlns:xlink="http://www.w3.org/1999/xlink">
<g id="graph0" class="graph" transform="scale(1 1) rotate(0) translate(4 1048)">
<title>snakemake_dag</title>
<polygon fill="white" stroke="none" points="-4,4 -4,-1048 319.5,-1048 319.5,4 -4,4"/>
<!-- 0 -->
<g id="node1" class="node">
<title>0</title>
<path fill="none" stroke="#56c1d8" stroke-width="2" d="M200.5,-36C200.5,-36 170.5,-36 170.5,-36 164.5,-36 158.5,-30 158.5,-24 158.5,-24 158.5,-12 158.5,-12 158.5,-6 164.5,0 170.5,0 170.5,0 200.5,0 200.5,0 206.5,0 212.5,-6 212.5,-12 212.5,-12 212.5,-24 212.5,-24 212.5,-30 206.5,-36 200.5,-36"/>
<text text-anchor="middle" x="185.5" y="-15.5" font-family="sans" font-size="10.00">all</text>
</g>
<!-- 1 -->
<g id="node2" class="node">
<title>1</title>
<path fill="none" stroke="#56d863" stroke-width="2" d="M99,-108C99,-108 12,-108 12,-108 6,-108 0,-102 0,-96 0,-96 0,-84 0,-84 0,-78 6,-72 12,-72 12,-72 99,-72 99,-72 105,-72 111,-78 111,-84 111,-84 111,-96 111,-96 111,-102 105,-108 99,-108"/>
<text text-anchor="middle" x="55.5" y="-87.5" font-family="sans" font-size="10.00">join_games_stadiums</text>
</g>
<!-- 1&#45;&gt;0 -->
<g id="edge3" class="edge">
<title>1&#45;&gt;0</title>
<path fill="none" stroke="grey" stroke-width="2" d="M88.64,-71.15C106.25,-61.67 128,-49.96 146.43,-40.04"/>
<polygon fill="grey" stroke="grey" stroke-width="2" points="148.55,-42.8 155.69,-34.97 145.23,-36.63 148.55,-42.8"/>
</g>
<!-- 2 -->
<g id="node3" class="node">
<title>2</title>
<path fill="none" stroke="#56a9d8" stroke-width="2" d="M93.5,-684C93.5,-684 37.5,-684 37.5,-684 31.5,-684 25.5,-678 25.5,-672 25.5,-672 25.5,-660 25.5,-660 25.5,-654 31.5,-648 37.5,-648 37.5,-648 93.5,-648 93.5,-648 99.5,-648 105.5,-654 105.5,-660 105.5,-660 105.5,-672 105.5,-672 105.5,-678 99.5,-684 93.5,-684"/>
<text text-anchor="middle" x="65.5" y="-663.5" font-family="sans" font-size="10.00">concat_games</text>
</g>
<!-- 2&#45;&gt;1 -->
<g id="edge4" class="edge">
<title>2&#45;&gt;1</title>
<path fill="none" stroke="grey" stroke-width="2" d="M57.44,-647.03C46.29,-620.48 27.5,-568.94 27.5,-523 27.5,-523 27.5,-523 27.5,-233 27.5,-193.74 37.93,-149.5 46.06,-120.99"/>
<polygon fill="grey" stroke="grey" stroke-width="2" points="50.21,-121.29 49.7,-110.71 43.5,-119.31 50.21,-121.29"/>
</g>
<!-- 8 -->
<g id="node9" class="node">
<title>8</title>
<path fill="none" stroke="#d85656" stroke-width="2" d="M157,-468C157,-468 68,-468 68,-468 62,-468 56,-462 56,-456 56,-456 56,-444 56,-444 56,-438 62,-432 68,-432 68,-432 157,-432 157,-432 163,-432 169,-438 169,-444 169,-444 169,-456 169,-456 169,-462 163,-468 157,-468"/>
<text text-anchor="middle" x="112.5" y="-447.5" font-family="sans" font-size="10.00">concat_match_sheets</text>
</g>
<!-- 2&#45;&gt;8 -->
<g id="edge13" class="edge">
<title>2&#45;&gt;8</title>
<path fill="none" stroke="grey" stroke-width="2" d="M65.71,-647.19C66.51,-617.05 70.07,-554.36 85.5,-504 87.93,-496.06 91.5,-487.88 95.25,-480.39"/>
<polygon fill="grey" stroke="grey" stroke-width="2" points="98.73,-481.45 100.36,-470.98 92.56,-478.14 98.73,-481.45"/>
</g>
<!-- 10 -->
<g id="node11" class="node">
<title>10</title>
<path fill="none" stroke="#56d8d0" stroke-width="2" d="M195,-612C195,-612 106,-612 106,-612 100,-612 94,-606 94,-600 94,-600 94,-588 94,-588 94,-582 100,-576 106,-576 106,-576 195,-576 195,-576 201,-576 207,-582 207,-588 207,-588 207,-600 207,-600 207,-606 201,-612 195,-612"/>
<text text-anchor="middle" x="150.5" y="-591.5" font-family="sans" font-size="10.00">scrape_match_sheets</text>
</g>
<!-- 2&#45;&gt;10 -->
<g id="edge16" class="edge">
<title>2&#45;&gt;10</title>
<path fill="none" stroke="grey" stroke-width="2" d="M86.95,-647.34C96.64,-639.36 108.28,-629.77 118.94,-620.99"/>
<polygon fill="grey" stroke="grey" stroke-width="2" points="121.27,-622.96 126.76,-613.9 116.82,-617.56 121.27,-622.96"/>
</g>
<!-- 3 -->
<g id="node4" class="node">
<title>3</title>
<path fill="none" stroke="#61d856" stroke-width="2" d="M93.5,-900C93.5,-900 39.5,-900 39.5,-900 33.5,-900 27.5,-894 27.5,-888 27.5,-888 27.5,-876 27.5,-876 27.5,-870 33.5,-864 39.5,-864 39.5,-864 93.5,-864 93.5,-864 99.5,-864 105.5,-870 105.5,-876 105.5,-876 105.5,-888 105.5,-888 105.5,-894 99.5,-900 93.5,-900"/>
<text text-anchor="middle" x="66.5" y="-879.5" font-family="sans" font-size="10.00">concat_teams</text>
</g>
<!-- 3&#45;&gt;2 -->
<g id="edge8" class="edge">
<title>3&#45;&gt;2</title>
<path fill="none" stroke="grey" stroke-width="2" d="M60.11,-863.11C56.82,-852.96 53.16,-839.93 51.5,-828 49.5,-813.57 50.05,-739.16 52.5,-720 53.45,-712.6 55.04,-704.74 56.79,-697.4"/>
<polygon fill="grey" stroke="grey" stroke-width="2" points="60.9,-697.52 60.02,-686.96 54.12,-695.76 60.9,-697.52"/>
</g>
<!-- 7 -->
<g id="node8" class="node">
<title>7</title>
<path fill="none" stroke="#56d89a" stroke-width="2" d="M128.5,-828C128.5,-828 72.5,-828 72.5,-828 66.5,-828 60.5,-822 60.5,-816 60.5,-816 60.5,-804 60.5,-804 60.5,-798 66.5,-792 72.5,-792 72.5,-792 128.5,-792 128.5,-792 134.5,-792 140.5,-798 140.5,-804 140.5,-804 140.5,-816 140.5,-816 140.5,-822 134.5,-828 128.5,-828"/>
<text text-anchor="middle" x="100.5" y="-807.5" font-family="sans" font-size="10.00">scrape_games</text>
</g>
<!-- 3&#45;&gt;7 -->
<g id="edge12" class="edge">
<title>3&#45;&gt;7</title>
<path fill="none" stroke="grey" stroke-width="2" d="M75.08,-863.34C78.44,-856.43 82.38,-848.31 86.14,-840.56"/>
<polygon fill="grey" stroke="grey" stroke-width="2" points="89.58,-841.43 90.8,-830.9 83.29,-838.37 89.58,-841.43"/>
</g>
<!-- 4 -->
<g id="node5" class="node">
<title>4</title>
<path fill="none" stroke="#97d856" stroke-width="2" d="M91,-972C91,-972 42,-972 42,-972 36,-972 30,-966 30,-960 30,-960 30,-948 30,-948 30,-942 36,-936 42,-936 42,-936 91,-936 91,-936 97,-936 103,-942 103,-948 103,-948 103,-960 103,-960 103,-966 97,-972 91,-972"/>
<text text-anchor="middle" x="66.5" y="-951.5" font-family="sans" font-size="10.00">parse_teams</text>
</g>
<!-- 4&#45;&gt;3 -->
<g id="edge9" class="edge">
<title>4&#45;&gt;3</title>
<path fill="none" stroke="grey" stroke-width="2" d="M66.5,-935.34C66.5,-928.75 66.5,-921.08 66.5,-913.67"/>
<polygon fill="grey" stroke="grey" stroke-width="2" points="70,-913.9 66.5,-903.9 63,-913.9 70,-913.9"/>
</g>
<!-- 5 -->
<g id="node6" class="node">
<title>5</title>
<path fill="none" stroke="#d88d56" stroke-width="2" d="M93.5,-1044C93.5,-1044 39.5,-1044 39.5,-1044 33.5,-1044 27.5,-1038 27.5,-1032 27.5,-1032 27.5,-1020 27.5,-1020 27.5,-1014 33.5,-1008 39.5,-1008 39.5,-1008 93.5,-1008 93.5,-1008 99.5,-1008 105.5,-1014 105.5,-1020 105.5,-1020 105.5,-1032 105.5,-1032 105.5,-1038 99.5,-1044 93.5,-1044"/>
<text text-anchor="middle" x="66.5" y="-1023.5" font-family="sans" font-size="10.00">scrape_teams</text>
</g>
<!-- 5&#45;&gt;4 -->
<g id="edge10" class="edge">
<title>5&#45;&gt;4</title>
<path fill="none" stroke="grey" stroke-width="2" d="M66.5,-1007.34C66.5,-1000.75 66.5,-993.08 66.5,-985.67"/>
<polygon fill="grey" stroke="grey" stroke-width="2" points="70,-985.9 66.5,-975.9 63,-985.9 70,-985.9"/>
</g>
<!-- 6 -->
<g id="node7" class="node">
<title>6</title>
<path fill="none" stroke="#56d8b9" stroke-width="2" d="M125,-756C125,-756 74,-756 74,-756 68,-756 62,-750 62,-744 62,-744 62,-732 62,-732 62,-726 68,-720 74,-720 74,-720 125,-720 125,-720 131,-720 137,-726 137,-732 137,-732 137,-744 137,-744 137,-750 131,-756 125,-756"/>
<text text-anchor="middle" x="99.5" y="-735.5" font-family="sans" font-size="10.00">parse_games</text>
</g>
<!-- 6&#45;&gt;2 -->
<g id="edge7" class="edge">
<title>6&#45;&gt;2</title>
<path fill="none" stroke="grey" stroke-width="2" d="M90.92,-719.34C87.56,-712.43 83.62,-704.31 79.86,-696.56"/>
<polygon fill="grey" stroke="grey" stroke-width="2" points="82.71,-694.37 75.2,-686.9 76.42,-697.43 82.71,-694.37"/>
</g>
<!-- 7&#45;&gt;6 -->
<g id="edge11" class="edge">
<title>7&#45;&gt;6</title>
<path fill="none" stroke="grey" stroke-width="2" d="M100.25,-791.34C100.15,-784.75 100.04,-777.08 99.94,-769.67"/>
<polygon fill="grey" stroke="grey" stroke-width="2" points="103.4,-769.85 99.76,-759.9 96.4,-769.95 103.4,-769.85"/>
</g>
<!-- 8&#45;&gt;1 -->
<g id="edge5" class="edge">
<title>8&#45;&gt;1</title>
<path fill="none" stroke="grey" stroke-width="2" d="M102.96,-431.19C89.75,-404.84 67.5,-353.55 67.5,-307 67.5,-307 67.5,-307 67.5,-233 67.5,-194.52 63.07,-150.37 59.59,-121.66"/>
<polygon fill="grey" stroke="grey" stroke-width="2" points="62.71,-121.38 57.99,-111.89 55.76,-122.25 62.71,-121.38"/>
</g>
<!-- 12 -->
<g id="node13" class="node">
<title>12</title>
<path fill="none" stroke="#d8ac56" stroke-width="2" d="M207,-252C207,-252 140,-252 140,-252 134,-252 128,-246 128,-240 128,-240 128,-228 128,-228 128,-222 134,-216 140,-216 140,-216 207,-216 207,-216 213,-216 219,-222 219,-228 219,-228 219,-240 219,-240 219,-246 213,-252 207,-252"/>
<text text-anchor="middle" x="173.5" y="-231.5" font-family="sans" font-size="10.00">concat_stadiums</text>
</g>
<!-- 8&#45;&gt;12 -->
<g id="edge19" class="edge">
<title>8&#45;&gt;12</title>
<path fill="none" stroke="grey" stroke-width="2" d="M111.12,-431.26C109.43,-400.69 108.97,-336.69 129.5,-288 133.33,-278.91 139.27,-270.17 145.55,-262.51"/>
<polygon fill="grey" stroke="grey" stroke-width="2" points="148.15,-264.59 152.16,-254.79 142.91,-259.95 148.15,-264.59"/>
</g>
<!-- 14 -->
<g id="node15" class="node">
<title>14</title>
<path fill="none" stroke="#56d882" stroke-width="2" d="M217,-396C217,-396 150,-396 150,-396 144,-396 138,-390 138,-384 138,-384 138,-372 138,-372 138,-366 144,-360 150,-360 150,-360 217,-360 217,-360 223,-360 229,-366 229,-372 229,-372 229,-384 229,-384 229,-390 223,-396 217,-396"/>
<text text-anchor="middle" x="183.5" y="-375.5" font-family="sans" font-size="10.00">scrape_stadiums</text>
</g>
<!-- 8&#45;&gt;14 -->
<g id="edge21" class="edge">
<title>8&#45;&gt;14</title>
<path fill="none" stroke="grey" stroke-width="2" d="M130.42,-431.34C138.26,-423.6 147.64,-414.36 156.31,-405.81"/>
<polygon fill="grey" stroke="grey" stroke-width="2" points="158.68,-408.41 163.34,-398.9 153.76,-403.43 158.68,-408.41"/>
</g>
<!-- 9 -->
<g id="node10" class="node">
<title>9</title>
<path fill="none" stroke="#d8c356" stroke-width="2" d="M190,-540C190,-540 107,-540 107,-540 101,-540 95,-534 95,-528 95,-528 95,-516 95,-516 95,-510 101,-504 107,-504 107,-504 190,-504 190,-504 196,-504 202,-510 202,-516 202,-516 202,-528 202,-528 202,-534 196,-540 190,-540"/>
<text text-anchor="middle" x="148.5" y="-519.5" font-family="sans" font-size="10.00">parse_match_sheets</text>
</g>
<!-- 9&#45;&gt;8 -->
<g id="edge14" class="edge">
<title>9&#45;&gt;8</title>
<path fill="none" stroke="grey" stroke-width="2" d="M139.42,-503.34C135.82,-496.34 131.59,-488.12 127.56,-480.28"/>
<polygon fill="grey" stroke="grey" stroke-width="2" points="130.39,-478.19 122.71,-470.9 124.17,-481.4 130.39,-478.19"/>
</g>
<!-- 10&#45;&gt;9 -->
<g id="edge15" class="edge">
<title>10&#45;&gt;9</title>
<path fill="none" stroke="grey" stroke-width="2" d="M150,-575.34C149.81,-568.75 149.59,-561.08 149.38,-553.67"/>
<polygon fill="grey" stroke="grey" stroke-width="2" points="152.8,-553.8 149.01,-543.9 145.8,-554 152.8,-553.8"/>
</g>
<!-- 11 -->
<g id="node12" class="node">
<title>11</title>
<path fill="none" stroke="#568ad8" stroke-width="2" d="M231.5,-180C231.5,-180 115.5,-180 115.5,-180 109.5,-180 103.5,-174 103.5,-168 103.5,-168 103.5,-156 103.5,-156 103.5,-150 109.5,-144 115.5,-144 115.5,-144 231.5,-144 231.5,-144 237.5,-144 243.5,-150 243.5,-156 243.5,-156 243.5,-168 243.5,-168 243.5,-174 237.5,-180 231.5,-180"/>
<text text-anchor="middle" x="173.5" y="-159.5" font-family="sans" font-size="10.00">fill_missing_stadium_coords</text>
</g>
<!-- 11&#45;&gt;1 -->
<g id="edge6" class="edge">
<title>11&#45;&gt;1</title>
<path fill="none" stroke="grey" stroke-width="2" d="M143.42,-143.15C129.13,-134.68 111.84,-124.42 96.39,-115.25"/>
<polygon fill="grey" stroke="grey" stroke-width="2" points="97.91,-111.9 87.53,-109.81 94.34,-117.92 97.91,-111.9"/>
</g>
<!-- 15 -->
<g id="node16" class="node">
<title>15</title>
<path fill="none" stroke="#b6d856" stroke-width="2" d="M229.5,-108C229.5,-108 141.5,-108 141.5,-108 135.5,-108 129.5,-102 129.5,-96 129.5,-96 129.5,-84 129.5,-84 129.5,-78 135.5,-72 141.5,-72 141.5,-72 229.5,-72 229.5,-72 235.5,-72 241.5,-78 241.5,-84 241.5,-84 241.5,-96 241.5,-96 241.5,-102 235.5,-108 229.5,-108"/>
<text text-anchor="middle" x="185.5" y="-87.5" font-family="sans" font-size="10.00">scrape_stadiums_geo</text>
</g>
<!-- 11&#45;&gt;15 -->
<g id="edge22" class="edge">
<title>11&#45;&gt;15</title>
<path fill="none" stroke="grey" stroke-width="2" d="M176.53,-143.34C177.66,-136.75 178.97,-129.08 180.24,-121.67"/>
<polygon fill="grey" stroke="grey" stroke-width="2" points="184.19,-121.35 182.43,-110.9 177.29,-120.17 184.19,-121.35"/>
</g>
<!-- 12&#45;&gt;11 -->
<g id="edge17" class="edge">
<title>12&#45;&gt;11</title>
<path fill="none" stroke="grey" stroke-width="2" d="M173.5,-215.34C173.5,-208.75 173.5,-201.08 173.5,-193.67"/>
<polygon fill="grey" stroke="grey" stroke-width="2" points="177,-193.9 173.5,-183.9 170,-193.9 177,-193.9"/>
</g>
<!-- 13 -->
<g id="node14" class="node">
<title>13</title>
<path fill="none" stroke="#d87556" stroke-width="2" d="M212.5,-324C212.5,-324 150.5,-324 150.5,-324 144.5,-324 138.5,-318 138.5,-312 138.5,-312 138.5,-300 138.5,-300 138.5,-294 144.5,-288 150.5,-288 150.5,-288 212.5,-288 212.5,-288 218.5,-288 224.5,-294 224.5,-300 224.5,-300 224.5,-312 224.5,-312 224.5,-318 218.5,-324 212.5,-324"/>
<text text-anchor="middle" x="181.5" y="-303.5" font-family="sans" font-size="10.00">parse_stadiums</text>
</g>
<!-- 13&#45;&gt;12 -->
<g id="edge18" class="edge">
<title>13&#45;&gt;12</title>
<path fill="none" stroke="grey" stroke-width="2" d="M179.48,-287.34C178.73,-280.75 177.85,-273.08 177,-265.67"/>
<polygon fill="grey" stroke="grey" stroke-width="2" points="180.16,-265.44 175.55,-255.9 173.2,-266.23 180.16,-265.44"/>
</g>
<!-- 14&#45;&gt;13 -->
<g id="edge20" class="edge">
<title>14&#45;&gt;13</title>
<path fill="none" stroke="grey" stroke-width="2" d="M183,-359.34C182.81,-352.75 182.59,-345.08 182.38,-337.67"/>
<polygon fill="grey" stroke="grey" stroke-width="2" points="185.8,-337.8 182.01,-327.9 178.8,-338 185.8,-337.8"/>
</g>
<!-- 15&#45;&gt;0 -->
<g id="edge2" class="edge">
<title>15&#45;&gt;0</title>
<path fill="none" stroke="grey" stroke-width="2" d="M185.5,-71.34C185.5,-64.75 185.5,-57.08 185.5,-49.67"/>
<polygon fill="grey" stroke="grey" stroke-width="2" points="189,-49.9 185.5,-39.9 182,-49.9 189,-49.9"/>
</g>
<!-- 16 -->
<g id="node17" class="node">
<title>16</title>
<path fill="none" stroke="#ced856" stroke-width="2" d="M303.5,-108C303.5,-108 271.5,-108 271.5,-108 265.5,-108 259.5,-102 259.5,-96 259.5,-96 259.5,-84 259.5,-84 259.5,-78 265.5,-72 271.5,-72 271.5,-72 303.5,-72 303.5,-72 309.5,-72 315.5,-78 315.5,-84 315.5,-84 315.5,-96 315.5,-96 315.5,-102 309.5,-108 303.5,-108"/>
<text text-anchor="middle" x="287.5" y="-87.5" font-family="sans" font-size="10.00">rulegraph</text>
</g>
<!-- 16&#45;&gt;0 -->
<g id="edge1" class="edge">
<title>16&#45;&gt;0</title>
<path fill="none" stroke="grey" stroke-width="2" d="M261.5,-71.15C249.51,-62.93 235.07,-53.02 222.01,-44.06"/>
<polygon fill="grey" stroke="grey" stroke-width="2" points="223.68,-40.59 213.46,-37.81 219.72,-46.36 223.68,-40.59"/>
</g>
</g>
</svg>
